<?xml version="1.0" encoding="utf-8" standalone="no"?>
<!DOCTYPE svg PUBLIC "-//W3C//DTD SVG 1.1//EN"
  "http://www.w3.org/Graphics/SVG/1.1/DTD/svg11.dtd">
<svg xmlns:xlink="http://www.w3.org/1999/xlink" width="297.626173pt" height="227.386905pt" viewBox="0 0 297.626173 227.386905" xmlns="http://www.w3.org/2000/svg" version="1.1">
 <metadata>
  <rdf:RDF xmlns:dc="http://purl.org/dc/elements/1.1/" xmlns:cc="http://creativecommons.org/ns#" xmlns:rdf="http://www.w3.org/1999/02/22-rdf-syntax-ns#">
   <cc:Work>
    <dc:type rdf:resource="http://purl.org/dc/dcmitype/StillImage"/>
    <dc:date>2026-01-22T11:13:40.529926</dc:date>
    <dc:format>image/svg+xml</dc:format>
    <dc:creator>
     <cc:Agent>
      <dc:title>Matplotlib v3.10.8, https://matplotlib.org/</dc:title>
     </cc:Agent>
    </dc:creator>
   </cc:Work>
  </rdf:RDF>
 </metadata>
 <defs>
  <style type="text/css">*{stroke-linejoin: round; stroke-linecap: butt}</style>
 </defs>
 <g id="figure_1">
  <g id="patch_1">
   <path d="M 0 227.386905 
L 297.626173 227.386905 
L 297.626173 0 
L 0 0 
z
" style="fill: #ffffff"/>
  </g>
  <g id="axes_1">
   <g id="patch_2">
    <path d="M 36.430938 196.558467 
L 296.186173 196.558467 
L 296.186173 1.44 
L 36.430938 1.44 
z
" style="fill: #f5f5f5"/>
   </g>
   <g id="matplotlib.axis_1">
    <g id="xtick_1">
     <g id="line2d_1">
      <path d="M 46.94145 196.558467 
L 46.94145 1.44 
" clip-path="url(#p5746fb389e)" style="fill: none; stroke: #ffffff; stroke-opacity: 0.5; stroke-width: 0.8; stroke-linecap: square"/>
     </g>
     <g id="line2d_2">
      <defs>
       <path id="m6a021fd384" d="M 0 0 
L 0 3.5 
" style="stroke: #000000; stroke-width: 0.8"/>
      </defs>
      <g>
       <use xlink:href="#m6a021fd384" x="46.94145" y="196.558467" style="stroke: #000000; stroke-width: 0.8"/>
      </g>
     </g>
     <g id="text_1">
      <!-- 0.0 -->
      <g transform="translate(39.785043 210.397061) scale(0.09 -0.09)">
       <defs>
        <path id="DejaVuSerif-30" d="M 2034 219 
Q 2513 219 2750 744 
Q 2988 1269 2988 2328 
Q 2988 3391 2750 3916 
Q 2513 4441 2034 4441 
Q 1556 4441 1318 3916 
Q 1081 3391 1081 2328 
Q 1081 1269 1318 744 
Q 1556 219 2034 219 
z
M 2034 -91 
Q 1275 -91 848 546 
Q 422 1184 422 2328 
Q 422 3475 848 4112 
Q 1275 4750 2034 4750 
Q 2797 4750 3222 4112 
Q 3647 3475 3647 2328 
Q 3647 1184 3222 546 
Q 2797 -91 2034 -91 
z
" transform="scale(0.015625)"/>
        <path id="DejaVuSerif-2e" d="M 603 325 
Q 603 500 722 622 
Q 841 744 1019 744 
Q 1191 744 1312 622 
Q 1434 500 1434 325 
Q 1434 153 1312 31 
Q 1191 -91 1019 -91 
Q 841 -91 722 29 
Q 603 150 603 325 
z
" transform="scale(0.015625)"/>
       </defs>
       <use xlink:href="#DejaVuSerif-30"/>
       <use xlink:href="#DejaVuSerif-2e" transform="translate(63.623047 0)"/>
       <use xlink:href="#DejaVuSerif-30" transform="translate(95.410156 0)"/>
      </g>
     </g>
    </g>
    <g id="xtick_2">
     <g id="line2d_3">
      <path d="M 83.172945 196.558467 
L 83.172945 1.44 
" clip-path="url(#p5746fb389e)" style="fill: none; stroke: #ffffff; stroke-opacity: 0.5; stroke-width: 0.8; stroke-linecap: square"/>
     </g>
     <g id="line2d_4">
      <g>
       <use xlink:href="#m6a021fd384" x="83.172945" y="196.558467" style="stroke: #000000; stroke-width: 0.8"/>
      </g>
     </g>
     <g id="text_2">
      <!-- 0.2 -->
      <g transform="translate(76.016538 210.397061) scale(0.09 -0.09)">
       <defs>
        <path id="DejaVuSerif-32" d="M 819 3553 
L 469 3553 
L 469 4384 
Q 803 4563 1142 4656 
Q 1481 4750 1806 4750 
Q 2534 4750 2956 4397 
Q 3378 4044 3378 3438 
Q 3378 2753 2422 1800 
Q 2347 1728 2309 1691 
L 1131 513 
L 3078 513 
L 3078 1088 
L 3444 1088 
L 3444 0 
L 434 0 
L 434 341 
L 1850 1753 
Q 2319 2222 2519 2614 
Q 2719 3006 2719 3438 
Q 2719 3909 2473 4175 
Q 2228 4441 1797 4441 
Q 1350 4441 1106 4219 
Q 863 3997 819 3553 
z
" transform="scale(0.015625)"/>
       </defs>
       <use xlink:href="#DejaVuSerif-30"/>
       <use xlink:href="#DejaVuSerif-2e" transform="translate(63.623047 0)"/>
       <use xlink:href="#DejaVuSerif-32" transform="translate(95.410156 0)"/>
      </g>
     </g>
    </g>
    <g id="xtick_3">
     <g id="line2d_5">
      <path d="M 119.404439 196.558467 
L 119.404439 1.44 
" clip-path="url(#p5746fb389e)" style="fill: none; stroke: #ffffff; stroke-opacity: 0.5; stroke-width: 0.8; stroke-linecap: square"/>
     </g>
     <g id="line2d_6">
      <g>
       <use xlink:href="#m6a021fd384" x="119.404439" y="196.558467" style="stroke: #000000; stroke-width: 0.8"/>
      </g>
     </g>
     <g id="text_3">
      <!-- 0.4 -->
      <g transform="translate(112.248033 210.397061) scale(0.09 -0.09)">
       <defs>
        <path id="DejaVuSerif-34" d="M 2234 1581 
L 2234 4063 
L 641 1581 
L 2234 1581 
z
M 3609 0 
L 1484 0 
L 1484 331 
L 2234 331 
L 2234 1247 
L 197 1247 
L 197 1588 
L 2241 4750 
L 2859 4750 
L 2859 1581 
L 3750 1581 
L 3750 1247 
L 2859 1247 
L 2859 331 
L 3609 331 
L 3609 0 
z
" transform="scale(0.015625)"/>
       </defs>
       <use xlink:href="#DejaVuSerif-30"/>
       <use xlink:href="#DejaVuSerif-2e" transform="translate(63.623047 0)"/>
       <use xlink:href="#DejaVuSerif-34" transform="translate(95.410156 0)"/>
      </g>
     </g>
    </g>
    <g id="xtick_4">
     <g id="line2d_7">
      <path d="M 155.635934 196.558467 
L 155.635934 1.44 
" clip-path="url(#p5746fb389e)" style="fill: none; stroke: #ffffff; stroke-opacity: 0.5; stroke-width: 0.8; stroke-linecap: square"/>
     </g>
     <g id="line2d_8">
      <g>
       <use xlink:href="#m6a021fd384" x="155.635934" y="196.558467" style="stroke: #000000; stroke-width: 0.8"/>
      </g>
     </g>
     <g id="text_4">
      <!-- 0.6 -->
      <g transform="translate(148.479528 210.397061) scale(0.09 -0.09)">
       <defs>
        <path id="DejaVuSerif-36" d="M 2094 219 
Q 2534 219 2771 542 
Q 3009 866 3009 1472 
Q 3009 2078 2771 2401 
Q 2534 2725 2094 2725 
Q 1647 2725 1412 2412 
Q 1178 2100 1178 1509 
Q 1178 888 1415 553 
Q 1653 219 2094 219 
z
M 1075 2569 
Q 1288 2803 1556 2918 
Q 1825 3034 2163 3034 
Q 2859 3034 3264 2615 
Q 3669 2197 3669 1472 
Q 3669 763 3233 336 
Q 2797 -91 2069 -91 
Q 1278 -91 853 498 
Q 428 1088 428 2181 
Q 428 3406 931 4078 
Q 1434 4750 2350 4750 
Q 2597 4750 2869 4703 
Q 3141 4656 3425 4563 
L 3425 3794 
L 3072 3794 
Q 3034 4109 2831 4275 
Q 2628 4441 2284 4441 
Q 1678 4441 1381 3981 
Q 1084 3522 1075 2569 
z
" transform="scale(0.015625)"/>
       </defs>
       <use xlink:href="#DejaVuSerif-30"/>
       <use xlink:href="#DejaVuSerif-2e" transform="translate(63.623047 0)"/>
       <use xlink:href="#DejaVuSerif-36" transform="translate(95.410156 0)"/>
      </g>
     </g>
    </g>
    <g id="xtick_5">
     <g id="line2d_9">
      <path d="M 191.867429 196.558467 
L 191.867429 1.44 
" clip-path="url(#p5746fb389e)" style="fill: none; stroke: #ffffff; stroke-opacity: 0.5; stroke-width: 0.8; stroke-linecap: square"/>
     </g>
     <g id="line2d_10">
      <g>
       <use xlink:href="#m6a021fd384" x="191.867429" y="196.558467" style="stroke: #000000; stroke-width: 0.8"/>
      </g>
     </g>
     <g id="text_5">
      <!-- 0.8 -->
      <g transform="translate(184.711023 210.397061) scale(0.09 -0.09)">
       <defs>
        <path id="DejaVuSerif-38" d="M 2981 1275 
Q 2981 1775 2732 2051 
Q 2484 2328 2034 2328 
Q 1584 2328 1336 2051 
Q 1088 1775 1088 1275 
Q 1088 772 1336 495 
Q 1584 219 2034 219 
Q 2484 219 2732 495 
Q 2981 772 2981 1275 
z
M 2853 3541 
Q 2853 3966 2637 4203 
Q 2422 4441 2034 4441 
Q 1650 4441 1433 4203 
Q 1216 3966 1216 3541 
Q 1216 3113 1433 2875 
Q 1650 2638 2034 2638 
Q 2422 2638 2637 2875 
Q 2853 3113 2853 3541 
z
M 2516 2484 
Q 3047 2413 3344 2092 
Q 3641 1772 3641 1275 
Q 3641 619 3225 264 
Q 2809 -91 2034 -91 
Q 1263 -91 845 264 
Q 428 619 428 1275 
Q 428 1772 725 2092 
Q 1022 2413 1556 2484 
Q 1084 2569 832 2842 
Q 581 3116 581 3541 
Q 581 4103 968 4426 
Q 1356 4750 2034 4750 
Q 2713 4750 3100 4426 
Q 3488 4103 3488 3541 
Q 3488 3116 3236 2842 
Q 2984 2569 2516 2484 
z
" transform="scale(0.015625)"/>
       </defs>
       <use xlink:href="#DejaVuSerif-30"/>
       <use xlink:href="#DejaVuSerif-2e" transform="translate(63.623047 0)"/>
       <use xlink:href="#DejaVuSerif-38" transform="translate(95.410156 0)"/>
      </g>
     </g>
    </g>
    <g id="xtick_6">
     <g id="line2d_11">
      <path d="M 228.098924 196.558467 
L 228.098924 1.44 
" clip-path="url(#p5746fb389e)" style="fill: none; stroke: #ffffff; stroke-opacity: 0.5; stroke-width: 0.8; stroke-linecap: square"/>
     </g>
     <g id="line2d_12">
      <g>
       <use xlink:href="#m6a021fd384" x="228.098924" y="196.558467" style="stroke: #000000; stroke-width: 0.8"/>
      </g>
     </g>
     <g id="text_6">
      <!-- 1.0 -->
      <g transform="translate(220.942518 210.397061) scale(0.09 -0.09)">
       <defs>
        <path id="DejaVuSerif-31" d="M 909 0 
L 909 331 
L 1722 331 
L 1722 4213 
L 781 3603 
L 781 4013 
L 1919 4750 
L 2350 4750 
L 2350 331 
L 3163 331 
L 3163 0 
L 909 0 
z
" transform="scale(0.015625)"/>
       </defs>
       <use xlink:href="#DejaVuSerif-31"/>
       <use xlink:href="#DejaVuSerif-2e" transform="translate(63.623047 0)"/>
       <use xlink:href="#DejaVuSerif-30" transform="translate(95.410156 0)"/>
      </g>
     </g>
    </g>
    <g id="xtick_7">
     <g id="line2d_13">
      <path d="M 264.330419 196.558467 
L 264.330419 1.44 
" clip-path="url(#p5746fb389e)" style="fill: none; stroke: #ffffff; stroke-opacity: 0.5; stroke-width: 0.8; stroke-linecap: square"/>
     </g>
     <g id="line2d_14">
      <g>
       <use xlink:href="#m6a021fd384" x="264.330419" y="196.558467" style="stroke: #000000; stroke-width: 0.8"/>
      </g>
     </g>
     <g id="text_7">
      <!-- 1.2 -->
      <g transform="translate(257.174013 210.397061) scale(0.09 -0.09)">
       <use xlink:href="#DejaVuSerif-31"/>
       <use xlink:href="#DejaVuSerif-2e" transform="translate(63.623047 0)"/>
       <use xlink:href="#DejaVuSerif-32" transform="translate(95.410156 0)"/>
      </g>
     </g>
    </g>
    <g id="xtick_8">
     <g id="line2d_15">
      <path d="M 37.883576 196.558467 
L 37.883576 1.44 
" clip-path="url(#p5746fb389e)" style="fill: none; stroke: #ffffff; stroke-opacity: 0.25; stroke-width: 0.8; stroke-linecap: square"/>
     </g>
     <g id="line2d_16">
      <defs>
       <path id="md2a2126080" d="M 0 0 
L 0 2 
" style="stroke: #000000; stroke-width: 0.6"/>
      </defs>
      <g>
       <use xlink:href="#md2a2126080" x="37.883576" y="196.558467" style="stroke: #000000; stroke-width: 0.6"/>
      </g>
     </g>
    </g>
    <g id="xtick_9">
     <g id="line2d_17">
      <path d="M 55.999323 196.558467 
L 55.999323 1.44 
" clip-path="url(#p5746fb389e)" style="fill: none; stroke: #ffffff; stroke-opacity: 0.25; stroke-width: 0.8; stroke-linecap: square"/>
     </g>
     <g id="line2d_18">
      <g>
       <use xlink:href="#md2a2126080" x="55.999323" y="196.558467" style="stroke: #000000; stroke-width: 0.6"/>
      </g>
     </g>
    </g>
    <g id="xtick_10">
     <g id="line2d_19">
      <path d="M 65.057197 196.558467 
L 65.057197 1.44 
" clip-path="url(#p5746fb389e)" style="fill: none; stroke: #ffffff; stroke-opacity: 0.25; stroke-width: 0.8; stroke-linecap: square"/>
     </g>
     <g id="line2d_20">
      <g>
       <use xlink:href="#md2a2126080" x="65.057197" y="196.558467" style="stroke: #000000; stroke-width: 0.6"/>
      </g>
     </g>
    </g>
    <g id="xtick_11">
     <g id="line2d_21">
      <path d="M 74.115071 196.558467 
L 74.115071 1.44 
" clip-path="url(#p5746fb389e)" style="fill: none; stroke: #ffffff; stroke-opacity: 0.25; stroke-width: 0.8; stroke-linecap: square"/>
     </g>
     <g id="line2d_22">
      <g>
       <use xlink:href="#md2a2126080" x="74.115071" y="196.558467" style="stroke: #000000; stroke-width: 0.6"/>
      </g>
     </g>
    </g>
    <g id="xtick_12">
     <g id="line2d_23">
      <path d="M 92.230818 196.558467 
L 92.230818 1.44 
" clip-path="url(#p5746fb389e)" style="fill: none; stroke: #ffffff; stroke-opacity: 0.25; stroke-width: 0.8; stroke-linecap: square"/>
     </g>
     <g id="line2d_24">
      <g>
       <use xlink:href="#md2a2126080" x="92.230818" y="196.558467" style="stroke: #000000; stroke-width: 0.6"/>
      </g>
     </g>
    </g>
    <g id="xtick_13">
     <g id="line2d_25">
      <path d="M 101.288692 196.558467 
L 101.288692 1.44 
" clip-path="url(#p5746fb389e)" style="fill: none; stroke: #ffffff; stroke-opacity: 0.25; stroke-width: 0.8; stroke-linecap: square"/>
     </g>
     <g id="line2d_26">
      <g>
       <use xlink:href="#md2a2126080" x="101.288692" y="196.558467" style="stroke: #000000; stroke-width: 0.6"/>
      </g>
     </g>
    </g>
    <g id="xtick_14">
     <g id="line2d_27">
      <path d="M 110.346566 196.558467 
L 110.346566 1.44 
" clip-path="url(#p5746fb389e)" style="fill: none; stroke: #ffffff; stroke-opacity: 0.25; stroke-width: 0.8; stroke-linecap: square"/>
     </g>
     <g id="line2d_28">
      <g>
       <use xlink:href="#md2a2126080" x="110.346566" y="196.558467" style="stroke: #000000; stroke-width: 0.6"/>
      </g>
     </g>
    </g>
    <g id="xtick_15">
     <g id="line2d_29">
      <path d="M 128.462313 196.558467 
L 128.462313 1.44 
" clip-path="url(#p5746fb389e)" style="fill: none; stroke: #ffffff; stroke-opacity: 0.25; stroke-width: 0.8; stroke-linecap: square"/>
     </g>
     <g id="line2d_30">
      <g>
       <use xlink:href="#md2a2126080" x="128.462313" y="196.558467" style="stroke: #000000; stroke-width: 0.6"/>
      </g>
     </g>
    </g>
    <g id="xtick_16">
     <g id="line2d_31">
      <path d="M 137.520187 196.558467 
L 137.520187 1.44 
" clip-path="url(#p5746fb389e)" style="fill: none; stroke: #ffffff; stroke-opacity: 0.25; stroke-width: 0.8; stroke-linecap: square"/>
     </g>
     <g id="line2d_32">
      <g>
       <use xlink:href="#md2a2126080" x="137.520187" y="196.558467" style="stroke: #000000; stroke-width: 0.6"/>
      </g>
     </g>
    </g>
    <g id="xtick_17">
     <g id="line2d_33">
      <path d="M 146.578061 196.558467 
L 146.578061 1.44 
" clip-path="url(#p5746fb389e)" style="fill: none; stroke: #ffffff; stroke-opacity: 0.25; stroke-width: 0.8; stroke-linecap: square"/>
     </g>
     <g id="line2d_34">
      <g>
       <use xlink:href="#md2a2126080" x="146.578061" y="196.558467" style="stroke: #000000; stroke-width: 0.6"/>
      </g>
     </g>
    </g>
    <g id="xtick_18">
     <g id="line2d_35">
      <path d="M 164.693808 196.558467 
L 164.693808 1.44 
" clip-path="url(#p5746fb389e)" style="fill: none; stroke: #ffffff; stroke-opacity: 0.25; stroke-width: 0.8; stroke-linecap: square"/>
     </g>
     <g id="line2d_36">
      <g>
       <use xlink:href="#md2a2126080" x="164.693808" y="196.558467" style="stroke: #000000; stroke-width: 0.6"/>
      </g>
     </g>
    </g>
    <g id="xtick_19">
     <g id="line2d_37">
      <path d="M 173.751682 196.558467 
L 173.751682 1.44 
" clip-path="url(#p5746fb389e)" style="fill: none; stroke: #ffffff; stroke-opacity: 0.25; stroke-width: 0.8; stroke-linecap: square"/>
     </g>
     <g id="line2d_38">
      <g>
       <use xlink:href="#md2a2126080" x="173.751682" y="196.558467" style="stroke: #000000; stroke-width: 0.6"/>
      </g>
     </g>
    </g>
    <g id="xtick_20">
     <g id="line2d_39">
      <path d="M 182.809555 196.558467 
L 182.809555 1.44 
" clip-path="url(#p5746fb389e)" style="fill: none; stroke: #ffffff; stroke-opacity: 0.25; stroke-width: 0.8; stroke-linecap: square"/>
     </g>
     <g id="line2d_40">
      <g>
       <use xlink:href="#md2a2126080" x="182.809555" y="196.558467" style="stroke: #000000; stroke-width: 0.6"/>
      </g>
     </g>
    </g>
    <g id="xtick_21">
     <g id="line2d_41">
      <path d="M 200.925303 196.558467 
L 200.925303 1.44 
" clip-path="url(#p5746fb389e)" style="fill: none; stroke: #ffffff; stroke-opacity: 0.25; stroke-width: 0.8; stroke-linecap: square"/>
     </g>
     <g id="line2d_42">
      <g>
       <use xlink:href="#md2a2126080" x="200.925303" y="196.558467" style="stroke: #000000; stroke-width: 0.6"/>
      </g>
     </g>
    </g>
    <g id="xtick_22">
     <g id="line2d_43">
      <path d="M 209.983177 196.558467 
L 209.983177 1.44 
" clip-path="url(#p5746fb389e)" style="fill: none; stroke: #ffffff; stroke-opacity: 0.25; stroke-width: 0.8; stroke-linecap: square"/>
     </g>
     <g id="line2d_44">
      <g>
       <use xlink:href="#md2a2126080" x="209.983177" y="196.558467" style="stroke: #000000; stroke-width: 0.6"/>
      </g>
     </g>
    </g>
    <g id="xtick_23">
     <g id="line2d_45">
      <path d="M 219.04105 196.558467 
L 219.04105 1.44 
" clip-path="url(#p5746fb389e)" style="fill: none; stroke: #ffffff; stroke-opacity: 0.25; stroke-width: 0.8; stroke-linecap: square"/>
     </g>
     <g id="line2d_46">
      <g>
       <use xlink:href="#md2a2126080" x="219.04105" y="196.558467" style="stroke: #000000; stroke-width: 0.6"/>
      </g>
     </g>
    </g>
    <g id="xtick_24">
     <g id="line2d_47">
      <path d="M 237.156798 196.558467 
L 237.156798 1.44 
" clip-path="url(#p5746fb389e)" style="fill: none; stroke: #ffffff; stroke-opacity: 0.25; stroke-width: 0.8; stroke-linecap: square"/>
     </g>
     <g id="line2d_48">
      <g>
       <use xlink:href="#md2a2126080" x="237.156798" y="196.558467" style="stroke: #000000; stroke-width: 0.6"/>
      </g>
     </g>
    </g>
    <g id="xtick_25">
     <g id="line2d_49">
      <path d="M 246.214672 196.558467 
L 246.214672 1.44 
" clip-path="url(#p5746fb389e)" style="fill: none; stroke: #ffffff; stroke-opacity: 0.25; stroke-width: 0.8; stroke-linecap: square"/>
     </g>
     <g id="line2d_50">
      <g>
       <use xlink:href="#md2a2126080" x="246.214672" y="196.558467" style="stroke: #000000; stroke-width: 0.6"/>
      </g>
     </g>
    </g>
    <g id="xtick_26">
     <g id="line2d_51">
      <path d="M 255.272545 196.558467 
L 255.272545 1.44 
" clip-path="url(#p5746fb389e)" style="fill: none; stroke: #ffffff; stroke-opacity: 0.25; stroke-width: 0.8; stroke-linecap: square"/>
     </g>
     <g id="line2d_52">
      <g>
       <use xlink:href="#md2a2126080" x="255.272545" y="196.558467" style="stroke: #000000; stroke-width: 0.6"/>
      </g>
     </g>
    </g>
    <g id="xtick_27">
     <g id="line2d_53">
      <path d="M 273.388293 196.558467 
L 273.388293 1.44 
" clip-path="url(#p5746fb389e)" style="fill: none; stroke: #ffffff; stroke-opacity: 0.25; stroke-width: 0.8; stroke-linecap: square"/>
     </g>
     <g id="line2d_54">
      <g>
       <use xlink:href="#md2a2126080" x="273.388293" y="196.558467" style="stroke: #000000; stroke-width: 0.6"/>
      </g>
     </g>
    </g>
    <g id="xtick_28">
     <g id="line2d_55">
      <path d="M 282.446166 196.558467 
L 282.446166 1.44 
" clip-path="url(#p5746fb389e)" style="fill: none; stroke: #ffffff; stroke-opacity: 0.25; stroke-width: 0.8; stroke-linecap: square"/>
     </g>
     <g id="line2d_56">
      <g>
       <use xlink:href="#md2a2126080" x="282.446166" y="196.558467" style="stroke: #000000; stroke-width: 0.6"/>
      </g>
     </g>
    </g>
    <g id="xtick_29">
     <g id="line2d_57">
      <path d="M 291.50404 196.558467 
L 291.50404 1.44 
" clip-path="url(#p5746fb389e)" style="fill: none; stroke: #ffffff; stroke-opacity: 0.25; stroke-width: 0.8; stroke-linecap: square"/>
     </g>
     <g id="line2d_58">
      <g>
       <use xlink:href="#md2a2126080" x="291.50404" y="196.558467" style="stroke: #000000; stroke-width: 0.6"/>
      </g>
     </g>
    </g>
    <g id="text_8">
     <!-- Gain (abs.) -->
     <g transform="translate(138.685899 223.867217) scale(0.1 -0.1)">
      <defs>
       <path id="DejaVuSerif-47" d="M 4097 3272 
Q 3988 3856 3641 4136 
Q 3294 4416 2675 4416 
Q 1869 4416 1472 3897 
Q 1075 3378 1075 2328 
Q 1075 1300 1484 772 
Q 1894 244 2688 244 
Q 3041 244 3362 331 
Q 3684 419 3975 594 
L 3975 1797 
L 3097 1797 
L 3097 2131 
L 4609 2131 
L 4609 391 
Q 4194 150 3714 29 
Q 3234 -91 2688 -91 
Q 1631 -91 995 570 
Q 359 1231 359 2328 
Q 359 3434 996 4092 
Q 1634 4750 2713 4750 
Q 3113 4750 3539 4658 
Q 3966 4566 4447 4378 
L 4447 3272 
L 4097 3272 
z
" transform="scale(0.015625)"/>
       <path id="DejaVuSerif-61" d="M 2547 1044 
L 2547 1747 
L 1806 1747 
Q 1378 1747 1168 1562 
Q 959 1378 959 997 
Q 959 650 1171 447 
Q 1384 244 1747 244 
Q 2106 244 2326 466 
Q 2547 688 2547 1044 
z
M 3122 2075 
L 3122 331 
L 3634 331 
L 3634 0 
L 2547 0 
L 2547 359 
Q 2356 128 2106 18 
Q 1856 -91 1522 -91 
Q 969 -91 644 203 
Q 319 497 319 997 
Q 319 1513 691 1797 
Q 1063 2081 1741 2081 
L 2547 2081 
L 2547 2309 
Q 2547 2688 2317 2895 
Q 2088 3103 1672 3103 
Q 1328 3103 1125 2947 
Q 922 2791 872 2484 
L 575 2484 
L 575 3156 
Q 875 3284 1158 3348 
Q 1441 3413 1709 3413 
Q 2400 3413 2761 3070 
Q 3122 2728 3122 2075 
z
" transform="scale(0.015625)"/>
       <path id="DejaVuSerif-69" d="M 622 4353 
Q 622 4497 726 4603 
Q 831 4709 978 4709 
Q 1122 4709 1226 4603 
Q 1331 4497 1331 4353 
Q 1331 4206 1228 4103 
Q 1125 4000 978 4000 
Q 831 4000 726 4103 
Q 622 4206 622 4353 
z
M 1356 331 
L 1900 331 
L 1900 0 
L 231 0 
L 231 331 
L 781 331 
L 781 2988 
L 231 2988 
L 231 3322 
L 1356 3322 
L 1356 331 
z
" transform="scale(0.015625)"/>
       <path id="DejaVuSerif-6e" d="M 263 0 
L 263 331 
L 781 331 
L 781 2988 
L 231 2988 
L 231 3322 
L 1356 3322 
L 1356 2731 
Q 1516 3069 1770 3241 
Q 2025 3413 2363 3413 
Q 2913 3413 3172 3097 
Q 3431 2781 3431 2113 
L 3431 331 
L 3944 331 
L 3944 0 
L 2356 0 
L 2356 331 
L 2853 331 
L 2853 1931 
Q 2853 2541 2703 2767 
Q 2553 2994 2175 2994 
Q 1775 2994 1565 2701 
Q 1356 2409 1356 1850 
L 1356 331 
L 1856 331 
L 1856 0 
L 263 0 
z
" transform="scale(0.015625)"/>
       <path id="DejaVuSerif-20" transform="scale(0.015625)"/>
       <path id="DejaVuSerif-28" d="M 2041 -997 
Q 1281 -656 893 83 
Q 506 822 506 1931 
Q 506 3044 893 3783 
Q 1281 4522 2041 4863 
L 2041 4556 
Q 1559 4225 1350 3623 
Q 1141 3022 1141 1931 
Q 1141 844 1350 242 
Q 1559 -359 2041 -691 
L 2041 -997 
z
" transform="scale(0.015625)"/>
       <path id="DejaVuSerif-62" d="M 738 331 
L 738 4531 
L 184 4531 
L 184 4863 
L 1313 4863 
L 1313 2803 
Q 1481 3116 1742 3264 
Q 2003 3413 2388 3413 
Q 3000 3413 3387 2928 
Q 3775 2444 3775 1663 
Q 3775 881 3387 395 
Q 3000 -91 2388 -91 
Q 2003 -91 1742 57 
Q 1481 206 1313 519 
L 1313 0 
L 184 0 
L 184 331 
L 738 331 
z
M 1313 1497 
Q 1313 897 1542 583 
Q 1772 269 2209 269 
Q 2650 269 2876 622 
Q 3103 975 3103 1663 
Q 3103 2353 2876 2703 
Q 2650 3053 2209 3053 
Q 1772 3053 1542 2737 
Q 1313 2422 1313 1825 
L 1313 1497 
z
" transform="scale(0.015625)"/>
       <path id="DejaVuSerif-73" d="M 359 184 
L 359 959 
L 691 959 
Q 703 588 923 403 
Q 1144 219 1575 219 
Q 1963 219 2166 364 
Q 2369 509 2369 788 
Q 2369 1006 2220 1140 
Q 2072 1275 1594 1428 
L 1178 1569 
Q 750 1706 558 1912 
Q 366 2119 366 2438 
Q 366 2894 700 3153 
Q 1034 3413 1625 3413 
Q 1888 3413 2178 3344 
Q 2469 3275 2778 3144 
L 2778 2419 
L 2447 2419 
Q 2434 2741 2221 2922 
Q 2009 3103 1644 3103 
Q 1281 3103 1095 2975 
Q 909 2847 909 2591 
Q 909 2381 1050 2254 
Q 1191 2128 1613 1997 
L 2069 1856 
Q 2541 1709 2748 1489 
Q 2956 1269 2956 922 
Q 2956 450 2595 179 
Q 2234 -91 1600 -91 
Q 1278 -91 972 -22 
Q 666 47 359 184 
z
" transform="scale(0.015625)"/>
       <path id="DejaVuSerif-29" d="M 453 -997 
L 453 -691 
Q 934 -359 1145 242 
Q 1356 844 1356 1931 
Q 1356 3022 1145 3623 
Q 934 4225 453 4556 
L 453 4863 
Q 1216 4522 1603 3783 
Q 1991 3044 1991 1931 
Q 1991 822 1603 83 
Q 1216 -656 453 -997 
z
" transform="scale(0.015625)"/>
      </defs>
      <use xlink:href="#DejaVuSerif-47"/>
      <use xlink:href="#DejaVuSerif-61" transform="translate(79.882812 0)"/>
      <use xlink:href="#DejaVuSerif-69" transform="translate(139.501953 0)"/>
      <use xlink:href="#DejaVuSerif-6e" transform="translate(171.484375 0)"/>
      <use xlink:href="#DejaVuSerif-20" transform="translate(235.888672 0)"/>
      <use xlink:href="#DejaVuSerif-28" transform="translate(267.675781 0)"/>
      <use xlink:href="#DejaVuSerif-61" transform="translate(306.689453 0)"/>
      <use xlink:href="#DejaVuSerif-62" transform="translate(366.308594 0)"/>
      <use xlink:href="#DejaVuSerif-73" transform="translate(430.322266 0)"/>
      <use xlink:href="#DejaVuSerif-2e" transform="translate(481.640625 0)"/>
      <use xlink:href="#DejaVuSerif-29" transform="translate(513.427734 0)"/>
     </g>
    </g>
   </g>
   <g id="matplotlib.axis_2">
    <g id="ytick_1">
     <g id="line2d_59">
      <path d="M 36.430938 192.153836 
L 296.186173 192.153836 
" clip-path="url(#p5746fb389e)" style="fill: none; stroke: #ffffff; stroke-opacity: 0.5; stroke-width: 0.8; stroke-linecap: square"/>
     </g>
     <g id="line2d_60">
      <defs>
       <path id="mc4bdf45dcc" d="M 0 0 
L -3.5 0 
" style="stroke: #000000; stroke-width: 0.8"/>
      </defs>
      <g>
       <use xlink:href="#mc4bdf45dcc" x="36.430938" y="192.153836" style="stroke: #000000; stroke-width: 0.8"/>
      </g>
     </g>
     <g id="text_9">
      <!-- 0.0 -->
      <g transform="translate(15.118125 195.573132) scale(0.09 -0.09)">
       <use xlink:href="#DejaVuSerif-30"/>
       <use xlink:href="#DejaVuSerif-2e" transform="translate(63.623047 0)"/>
       <use xlink:href="#DejaVuSerif-30" transform="translate(95.410156 0)"/>
      </g>
     </g>
    </g>
    <g id="ytick_2">
     <g id="line2d_61">
      <path d="M 36.430938 167.163821 
L 296.186173 167.163821 
" clip-path="url(#p5746fb389e)" style="fill: none; stroke: #ffffff; stroke-opacity: 0.5; stroke-width: 0.8; stroke-linecap: square"/>
     </g>
     <g id="line2d_62">
      <g>
       <use xlink:href="#mc4bdf45dcc" x="36.430938" y="167.163821" style="stroke: #000000; stroke-width: 0.8"/>
      </g>
     </g>
     <g id="text_10">
      <!-- 1.0 -->
      <g transform="translate(15.118125 170.583118) scale(0.09 -0.09)">
       <use xlink:href="#DejaVuSerif-31"/>
       <use xlink:href="#DejaVuSerif-2e" transform="translate(63.623047 0)"/>
       <use xlink:href="#DejaVuSerif-30" transform="translate(95.410156 0)"/>
      </g>
     </g>
    </g>
    <g id="ytick_3">
     <g id="line2d_63">
      <path d="M 36.430938 142.173806 
L 296.186173 142.173806 
" clip-path="url(#p5746fb389e)" style="fill: none; stroke: #ffffff; stroke-opacity: 0.5; stroke-width: 0.8; stroke-linecap: square"/>
     </g>
     <g id="line2d_64">
      <g>
       <use xlink:href="#mc4bdf45dcc" x="36.430938" y="142.173806" style="stroke: #000000; stroke-width: 0.8"/>
      </g>
     </g>
     <g id="text_11">
      <!-- 2.0 -->
      <g transform="translate(15.118125 145.593103) scale(0.09 -0.09)">
       <use xlink:href="#DejaVuSerif-32"/>
       <use xlink:href="#DejaVuSerif-2e" transform="translate(63.623047 0)"/>
       <use xlink:href="#DejaVuSerif-30" transform="translate(95.410156 0)"/>
      </g>
     </g>
    </g>
    <g id="ytick_4">
     <g id="line2d_65">
      <path d="M 36.430938 117.183791 
L 296.186173 117.183791 
" clip-path="url(#p5746fb389e)" style="fill: none; stroke: #ffffff; stroke-opacity: 0.5; stroke-width: 0.8; stroke-linecap: square"/>
     </g>
     <g id="line2d_66">
      <g>
       <use xlink:href="#mc4bdf45dcc" x="36.430938" y="117.183791" style="stroke: #000000; stroke-width: 0.8"/>
      </g>
     </g>
     <g id="text_12">
      <!-- 3.0 -->
      <g transform="translate(15.118125 120.603088) scale(0.09 -0.09)">
       <defs>
        <path id="DejaVuSerif-33" d="M 622 4469 
Q 988 4606 1323 4678 
Q 1659 4750 1953 4750 
Q 2638 4750 3022 4454 
Q 3406 4159 3406 3634 
Q 3406 3213 3140 2930 
Q 2875 2647 2388 2547 
Q 2963 2466 3280 2130 
Q 3597 1794 3597 1259 
Q 3597 606 3158 257 
Q 2719 -91 1894 -91 
Q 1528 -91 1179 -12 
Q 831 66 488 225 
L 488 1131 
L 838 1131 
Q 869 681 1141 450 
Q 1413 219 1906 219 
Q 2384 219 2661 495 
Q 2938 772 2938 1253 
Q 2938 1803 2653 2086 
Q 2369 2369 1819 2369 
L 1522 2369 
L 1522 2688 
L 1678 2688 
Q 2225 2688 2498 2914 
Q 2772 3141 2772 3597 
Q 2772 4006 2547 4223 
Q 2322 4441 1900 4441 
Q 1478 4441 1245 4241 
Q 1013 4041 972 3647 
L 622 3647 
L 622 4469 
z
" transform="scale(0.015625)"/>
       </defs>
       <use xlink:href="#DejaVuSerif-33"/>
       <use xlink:href="#DejaVuSerif-2e" transform="translate(63.623047 0)"/>
       <use xlink:href="#DejaVuSerif-30" transform="translate(95.410156 0)"/>
      </g>
     </g>
    </g>
    <g id="ytick_5">
     <g id="line2d_67">
      <path d="M 36.430938 92.193776 
L 296.186173 92.193776 
" clip-path="url(#p5746fb389e)" style="fill: none; stroke: #ffffff; stroke-opacity: 0.5; stroke-width: 0.8; stroke-linecap: square"/>
     </g>
     <g id="line2d_68">
      <g>
       <use xlink:href="#mc4bdf45dcc" x="36.430938" y="92.193776" style="stroke: #000000; stroke-width: 0.8"/>
      </g>
     </g>
     <g id="text_13">
      <!-- 4.0 -->
      <g transform="translate(15.118125 95.613073) scale(0.09 -0.09)">
       <use xlink:href="#DejaVuSerif-34"/>
       <use xlink:href="#DejaVuSerif-2e" transform="translate(63.623047 0)"/>
       <use xlink:href="#DejaVuSerif-30" transform="translate(95.410156 0)"/>
      </g>
     </g>
    </g>
    <g id="ytick_6">
     <g id="line2d_69">
      <path d="M 36.430938 67.203761 
L 296.186173 67.203761 
" clip-path="url(#p5746fb389e)" style="fill: none; stroke: #ffffff; stroke-opacity: 0.5; stroke-width: 0.8; stroke-linecap: square"/>
     </g>
     <g id="line2d_70">
      <g>
       <use xlink:href="#mc4bdf45dcc" x="36.430938" y="67.203761" style="stroke: #000000; stroke-width: 0.8"/>
      </g>
     </g>
     <g id="text_14">
      <!-- 5.0 -->
      <g transform="translate(15.118125 70.623058) scale(0.09 -0.09)">
       <defs>
        <path id="DejaVuSerif-35" d="M 3219 4666 
L 3219 4153 
L 1081 4153 
L 1081 2816 
Q 1244 2928 1461 2984 
Q 1678 3041 1947 3041 
Q 2703 3041 3140 2622 
Q 3578 2203 3578 1478 
Q 3578 738 3136 323 
Q 2694 -91 1894 -91 
Q 1572 -91 1234 -12 
Q 897 66 544 225 
L 544 1131 
L 897 1131 
Q 925 688 1179 453 
Q 1434 219 1894 219 
Q 2388 219 2653 544 
Q 2919 869 2919 1478 
Q 2919 2084 2655 2407 
Q 2391 2731 1894 2731 
Q 1613 2731 1398 2631 
Q 1184 2531 1019 2322 
L 750 2322 
L 750 4666 
L 3219 4666 
z
" transform="scale(0.015625)"/>
       </defs>
       <use xlink:href="#DejaVuSerif-35"/>
       <use xlink:href="#DejaVuSerif-2e" transform="translate(63.623047 0)"/>
       <use xlink:href="#DejaVuSerif-30" transform="translate(95.410156 0)"/>
      </g>
     </g>
    </g>
    <g id="ytick_7">
     <g id="line2d_71">
      <path d="M 36.430938 42.213747 
L 296.186173 42.213747 
" clip-path="url(#p5746fb389e)" style="fill: none; stroke: #ffffff; stroke-opacity: 0.5; stroke-width: 0.8; stroke-linecap: square"/>
     </g>
     <g id="line2d_72">
      <g>
       <use xlink:href="#mc4bdf45dcc" x="36.430938" y="42.213747" style="stroke: #000000; stroke-width: 0.8"/>
      </g>
     </g>
     <g id="text_15">
      <!-- 6.0 -->
      <g transform="translate(15.118125 45.633043) scale(0.09 -0.09)">
       <use xlink:href="#DejaVuSerif-36"/>
       <use xlink:href="#DejaVuSerif-2e" transform="translate(63.623047 0)"/>
       <use xlink:href="#DejaVuSerif-30" transform="translate(95.410156 0)"/>
      </g>
     </g>
    </g>
    <g id="ytick_8">
     <g id="line2d_73">
      <path d="M 36.430938 17.223732 
L 296.186173 17.223732 
" clip-path="url(#p5746fb389e)" style="fill: none; stroke: #ffffff; stroke-opacity: 0.5; stroke-width: 0.8; stroke-linecap: square"/>
     </g>
     <g id="line2d_74">
      <g>
       <use xlink:href="#mc4bdf45dcc" x="36.430938" y="17.223732" style="stroke: #000000; stroke-width: 0.8"/>
      </g>
     </g>
     <g id="text_16">
      <!-- 7.0 -->
      <g transform="translate(15.118125 20.643029) scale(0.09 -0.09)">
       <defs>
        <path id="DejaVuSerif-37" d="M 3609 4347 
L 1784 0 
L 1319 0 
L 3059 4153 
L 903 4153 
L 903 3578 
L 538 3578 
L 538 4666 
L 3609 4666 
L 3609 4347 
z
" transform="scale(0.015625)"/>
       </defs>
       <use xlink:href="#DejaVuSerif-37"/>
       <use xlink:href="#DejaVuSerif-2e" transform="translate(63.623047 0)"/>
       <use xlink:href="#DejaVuSerif-30" transform="translate(95.410156 0)"/>
      </g>
     </g>
    </g>
    <g id="ytick_9">
     <g id="line2d_75">
      <path d="M 36.430938 187.155833 
L 296.186173 187.155833 
" clip-path="url(#p5746fb389e)" style="fill: none; stroke: #ffffff; stroke-opacity: 0.25; stroke-width: 0.8; stroke-linecap: square"/>
     </g>
     <g id="line2d_76">
      <defs>
       <path id="m5a2eb191a0" d="M 0 0 
L -2 0 
" style="stroke: #000000; stroke-width: 0.6"/>
      </defs>
      <g>
       <use xlink:href="#m5a2eb191a0" x="36.430938" y="187.155833" style="stroke: #000000; stroke-width: 0.6"/>
      </g>
     </g>
    </g>
    <g id="ytick_10">
     <g id="line2d_77">
      <path d="M 36.430938 182.15783 
L 296.186173 182.15783 
" clip-path="url(#p5746fb389e)" style="fill: none; stroke: #ffffff; stroke-opacity: 0.25; stroke-width: 0.8; stroke-linecap: square"/>
     </g>
     <g id="line2d_78">
      <g>
       <use xlink:href="#m5a2eb191a0" x="36.430938" y="182.15783" style="stroke: #000000; stroke-width: 0.6"/>
      </g>
     </g>
    </g>
    <g id="ytick_11">
     <g id="line2d_79">
      <path d="M 36.430938 177.159827 
L 296.186173 177.159827 
" clip-path="url(#p5746fb389e)" style="fill: none; stroke: #ffffff; stroke-opacity: 0.25; stroke-width: 0.8; stroke-linecap: square"/>
     </g>
     <g id="line2d_80">
      <g>
       <use xlink:href="#m5a2eb191a0" x="36.430938" y="177.159827" style="stroke: #000000; stroke-width: 0.6"/>
      </g>
     </g>
    </g>
    <g id="ytick_12">
     <g id="line2d_81">
      <path d="M 36.430938 172.161824 
L 296.186173 172.161824 
" clip-path="url(#p5746fb389e)" style="fill: none; stroke: #ffffff; stroke-opacity: 0.25; stroke-width: 0.8; stroke-linecap: square"/>
     </g>
     <g id="line2d_82">
      <g>
       <use xlink:href="#m5a2eb191a0" x="36.430938" y="172.161824" style="stroke: #000000; stroke-width: 0.6"/>
      </g>
     </g>
    </g>
    <g id="ytick_13">
     <g id="line2d_83">
      <path d="M 36.430938 162.165818 
L 296.186173 162.165818 
" clip-path="url(#p5746fb389e)" style="fill: none; stroke: #ffffff; stroke-opacity: 0.25; stroke-width: 0.8; stroke-linecap: square"/>
     </g>
     <g id="line2d_84">
      <g>
       <use xlink:href="#m5a2eb191a0" x="36.430938" y="162.165818" style="stroke: #000000; stroke-width: 0.6"/>
      </g>
     </g>
    </g>
    <g id="ytick_14">
     <g id="line2d_85">
      <path d="M 36.430938 157.167815 
L 296.186173 157.167815 
" clip-path="url(#p5746fb389e)" style="fill: none; stroke: #ffffff; stroke-opacity: 0.25; stroke-width: 0.8; stroke-linecap: square"/>
     </g>
     <g id="line2d_86">
      <g>
       <use xlink:href="#m5a2eb191a0" x="36.430938" y="157.167815" style="stroke: #000000; stroke-width: 0.6"/>
      </g>
     </g>
    </g>
    <g id="ytick_15">
     <g id="line2d_87">
      <path d="M 36.430938 152.169812 
L 296.186173 152.169812 
" clip-path="url(#p5746fb389e)" style="fill: none; stroke: #ffffff; stroke-opacity: 0.25; stroke-width: 0.8; stroke-linecap: square"/>
     </g>
     <g id="line2d_88">
      <g>
       <use xlink:href="#m5a2eb191a0" x="36.430938" y="152.169812" style="stroke: #000000; stroke-width: 0.6"/>
      </g>
     </g>
    </g>
    <g id="ytick_16">
     <g id="line2d_89">
      <path d="M 36.430938 147.171809 
L 296.186173 147.171809 
" clip-path="url(#p5746fb389e)" style="fill: none; stroke: #ffffff; stroke-opacity: 0.25; stroke-width: 0.8; stroke-linecap: square"/>
     </g>
     <g id="line2d_90">
      <g>
       <use xlink:href="#m5a2eb191a0" x="36.430938" y="147.171809" style="stroke: #000000; stroke-width: 0.6"/>
      </g>
     </g>
    </g>
    <g id="ytick_17">
     <g id="line2d_91">
      <path d="M 36.430938 137.175803 
L 296.186173 137.175803 
" clip-path="url(#p5746fb389e)" style="fill: none; stroke: #ffffff; stroke-opacity: 0.25; stroke-width: 0.8; stroke-linecap: square"/>
     </g>
     <g id="line2d_92">
      <g>
       <use xlink:href="#m5a2eb191a0" x="36.430938" y="137.175803" style="stroke: #000000; stroke-width: 0.6"/>
      </g>
     </g>
    </g>
    <g id="ytick_18">
     <g id="line2d_93">
      <path d="M 36.430938 132.1778 
L 296.186173 132.1778 
" clip-path="url(#p5746fb389e)" style="fill: none; stroke: #ffffff; stroke-opacity: 0.25; stroke-width: 0.8; stroke-linecap: square"/>
     </g>
     <g id="line2d_94">
      <g>
       <use xlink:href="#m5a2eb191a0" x="36.430938" y="132.1778" style="stroke: #000000; stroke-width: 0.6"/>
      </g>
     </g>
    </g>
    <g id="ytick_19">
     <g id="line2d_95">
      <path d="M 36.430938 127.179797 
L 296.186173 127.179797 
" clip-path="url(#p5746fb389e)" style="fill: none; stroke: #ffffff; stroke-opacity: 0.25; stroke-width: 0.8; stroke-linecap: square"/>
     </g>
     <g id="line2d_96">
      <g>
       <use xlink:href="#m5a2eb191a0" x="36.430938" y="127.179797" style="stroke: #000000; stroke-width: 0.6"/>
      </g>
     </g>
    </g>
    <g id="ytick_20">
     <g id="line2d_97">
      <path d="M 36.430938 122.181794 
L 296.186173 122.181794 
" clip-path="url(#p5746fb389e)" style="fill: none; stroke: #ffffff; stroke-opacity: 0.25; stroke-width: 0.8; stroke-linecap: square"/>
     </g>
     <g id="line2d_98">
      <g>
       <use xlink:href="#m5a2eb191a0" x="36.430938" y="122.181794" style="stroke: #000000; stroke-width: 0.6"/>
      </g>
     </g>
    </g>
    <g id="ytick_21">
     <g id="line2d_99">
      <path d="M 36.430938 112.185788 
L 296.186173 112.185788 
" clip-path="url(#p5746fb389e)" style="fill: none; stroke: #ffffff; stroke-opacity: 0.25; stroke-width: 0.8; stroke-linecap: square"/>
     </g>
     <g id="line2d_100">
      <g>
       <use xlink:href="#m5a2eb191a0" x="36.430938" y="112.185788" style="stroke: #000000; stroke-width: 0.6"/>
      </g>
     </g>
    </g>
    <g id="ytick_22">
     <g id="line2d_101">
      <path d="M 36.430938 107.187785 
L 296.186173 107.187785 
" clip-path="url(#p5746fb389e)" style="fill: none; stroke: #ffffff; stroke-opacity: 0.25; stroke-width: 0.8; stroke-linecap: square"/>
     </g>
     <g id="line2d_102">
      <g>
       <use xlink:href="#m5a2eb191a0" x="36.430938" y="107.187785" style="stroke: #000000; stroke-width: 0.6"/>
      </g>
     </g>
    </g>
    <g id="ytick_23">
     <g id="line2d_103">
      <path d="M 36.430938 102.189782 
L 296.186173 102.189782 
" clip-path="url(#p5746fb389e)" style="fill: none; stroke: #ffffff; stroke-opacity: 0.25; stroke-width: 0.8; stroke-linecap: square"/>
     </g>
     <g id="line2d_104">
      <g>
       <use xlink:href="#m5a2eb191a0" x="36.430938" y="102.189782" style="stroke: #000000; stroke-width: 0.6"/>
      </g>
     </g>
    </g>
    <g id="ytick_24">
     <g id="line2d_105">
      <path d="M 36.430938 97.191779 
L 296.186173 97.191779 
" clip-path="url(#p5746fb389e)" style="fill: none; stroke: #ffffff; stroke-opacity: 0.25; stroke-width: 0.8; stroke-linecap: square"/>
     </g>
     <g id="line2d_106">
      <g>
       <use xlink:href="#m5a2eb191a0" x="36.430938" y="97.191779" style="stroke: #000000; stroke-width: 0.6"/>
      </g>
     </g>
    </g>
    <g id="ytick_25">
     <g id="line2d_107">
      <path d="M 36.430938 87.195773 
L 296.186173 87.195773 
" clip-path="url(#p5746fb389e)" style="fill: none; stroke: #ffffff; stroke-opacity: 0.25; stroke-width: 0.8; stroke-linecap: square"/>
     </g>
     <g id="line2d_108">
      <g>
       <use xlink:href="#m5a2eb191a0" x="36.430938" y="87.195773" style="stroke: #000000; stroke-width: 0.6"/>
      </g>
     </g>
    </g>
    <g id="ytick_26">
     <g id="line2d_109">
      <path d="M 36.430938 82.19777 
L 296.186173 82.19777 
" clip-path="url(#p5746fb389e)" style="fill: none; stroke: #ffffff; stroke-opacity: 0.25; stroke-width: 0.8; stroke-linecap: square"/>
     </g>
     <g id="line2d_110">
      <g>
       <use xlink:href="#m5a2eb191a0" x="36.430938" y="82.19777" style="stroke: #000000; stroke-width: 0.6"/>
      </g>
     </g>
    </g>
    <g id="ytick_27">
     <g id="line2d_111">
      <path d="M 36.430938 77.199767 
L 296.186173 77.199767 
" clip-path="url(#p5746fb389e)" style="fill: none; stroke: #ffffff; stroke-opacity: 0.25; stroke-width: 0.8; stroke-linecap: square"/>
     </g>
     <g id="line2d_112">
      <g>
       <use xlink:href="#m5a2eb191a0" x="36.430938" y="77.199767" style="stroke: #000000; stroke-width: 0.6"/>
      </g>
     </g>
    </g>
    <g id="ytick_28">
     <g id="line2d_113">
      <path d="M 36.430938 72.201764 
L 296.186173 72.201764 
" clip-path="url(#p5746fb389e)" style="fill: none; stroke: #ffffff; stroke-opacity: 0.25; stroke-width: 0.8; stroke-linecap: square"/>
     </g>
     <g id="line2d_114">
      <g>
       <use xlink:href="#m5a2eb191a0" x="36.430938" y="72.201764" style="stroke: #000000; stroke-width: 0.6"/>
      </g>
     </g>
    </g>
    <g id="ytick_29">
     <g id="line2d_115">
      <path d="M 36.430938 62.205758 
L 296.186173 62.205758 
" clip-path="url(#p5746fb389e)" style="fill: none; stroke: #ffffff; stroke-opacity: 0.25; stroke-width: 0.8; stroke-linecap: square"/>
     </g>
     <g id="line2d_116">
      <g>
       <use xlink:href="#m5a2eb191a0" x="36.430938" y="62.205758" style="stroke: #000000; stroke-width: 0.6"/>
      </g>
     </g>
    </g>
    <g id="ytick_30">
     <g id="line2d_117">
      <path d="M 36.430938 57.207755 
L 296.186173 57.207755 
" clip-path="url(#p5746fb389e)" style="fill: none; stroke: #ffffff; stroke-opacity: 0.25; stroke-width: 0.8; stroke-linecap: square"/>
     </g>
     <g id="line2d_118">
      <g>
       <use xlink:href="#m5a2eb191a0" x="36.430938" y="57.207755" style="stroke: #000000; stroke-width: 0.6"/>
      </g>
     </g>
    </g>
    <g id="ytick_31">
     <g id="line2d_119">
      <path d="M 36.430938 52.209753 
L 296.186173 52.209753 
" clip-path="url(#p5746fb389e)" style="fill: none; stroke: #ffffff; stroke-opacity: 0.25; stroke-width: 0.8; stroke-linecap: square"/>
     </g>
     <g id="line2d_120">
      <g>
       <use xlink:href="#m5a2eb191a0" x="36.430938" y="52.209753" style="stroke: #000000; stroke-width: 0.6"/>
      </g>
     </g>
    </g>
    <g id="ytick_32">
     <g id="line2d_121">
      <path d="M 36.430938 47.21175 
L 296.186173 47.21175 
" clip-path="url(#p5746fb389e)" style="fill: none; stroke: #ffffff; stroke-opacity: 0.25; stroke-width: 0.8; stroke-linecap: square"/>
     </g>
     <g id="line2d_122">
      <g>
       <use xlink:href="#m5a2eb191a0" x="36.430938" y="47.21175" style="stroke: #000000; stroke-width: 0.6"/>
      </g>
     </g>
    </g>
    <g id="ytick_33">
     <g id="line2d_123">
      <path d="M 36.430938 37.215744 
L 296.186173 37.215744 
" clip-path="url(#p5746fb389e)" style="fill: none; stroke: #ffffff; stroke-opacity: 0.25; stroke-width: 0.8; stroke-linecap: square"/>
     </g>
     <g id="line2d_124">
      <g>
       <use xlink:href="#m5a2eb191a0" x="36.430938" y="37.215744" style="stroke: #000000; stroke-width: 0.6"/>
      </g>
     </g>
    </g>
    <g id="ytick_34">
     <g id="line2d_125">
      <path d="M 36.430938 32.217741 
L 296.186173 32.217741 
" clip-path="url(#p5746fb389e)" style="fill: none; stroke: #ffffff; stroke-opacity: 0.25; stroke-width: 0.8; stroke-linecap: square"/>
     </g>
     <g id="line2d_126">
      <g>
       <use xlink:href="#m5a2eb191a0" x="36.430938" y="32.217741" style="stroke: #000000; stroke-width: 0.6"/>
      </g>
     </g>
    </g>
    <g id="ytick_35">
     <g id="line2d_127">
      <path d="M 36.430938 27.219738 
L 296.186173 27.219738 
" clip-path="url(#p5746fb389e)" style="fill: none; stroke: #ffffff; stroke-opacity: 0.25; stroke-width: 0.8; stroke-linecap: square"/>
     </g>
     <g id="line2d_128">
      <g>
       <use xlink:href="#m5a2eb191a0" x="36.430938" y="27.219738" style="stroke: #000000; stroke-width: 0.6"/>
      </g>
     </g>
    </g>
    <g id="ytick_36">
     <g id="line2d_129">
      <path d="M 36.430938 22.221735 
L 296.186173 22.221735 
" clip-path="url(#p5746fb389e)" style="fill: none; stroke: #ffffff; stroke-opacity: 0.25; stroke-width: 0.8; stroke-linecap: square"/>
     </g>
     <g id="line2d_130">
      <g>
       <use xlink:href="#m5a2eb191a0" x="36.430938" y="22.221735" style="stroke: #000000; stroke-width: 0.6"/>
      </g>
     </g>
    </g>
    <g id="ytick_37">
     <g id="line2d_131">
      <path d="M 36.430938 12.225729 
L 296.186173 12.225729 
" clip-path="url(#p5746fb389e)" style="fill: none; stroke: #ffffff; stroke-opacity: 0.25; stroke-width: 0.8; stroke-linecap: square"/>
     </g>
     <g id="line2d_132">
      <g>
       <use xlink:href="#m5a2eb191a0" x="36.430938" y="12.225729" style="stroke: #000000; stroke-width: 0.6"/>
      </g>
     </g>
    </g>
    <g id="ytick_38">
     <g id="line2d_133">
      <path d="M 36.430938 7.227726 
L 296.186173 7.227726 
" clip-path="url(#p5746fb389e)" style="fill: none; stroke: #ffffff; stroke-opacity: 0.25; stroke-width: 0.8; stroke-linecap: square"/>
     </g>
     <g id="line2d_134">
      <g>
       <use xlink:href="#m5a2eb191a0" x="36.430938" y="7.227726" style="stroke: #000000; stroke-width: 0.6"/>
      </g>
     </g>
    </g>
    <g id="ytick_39">
     <g id="line2d_135">
      <path d="M 36.430938 2.229723 
L 296.186173 2.229723 
" clip-path="url(#p5746fb389e)" style="fill: none; stroke: #ffffff; stroke-opacity: 0.25; stroke-width: 0.8; stroke-linecap: square"/>
     </g>
     <g id="line2d_136">
      <g>
       <use xlink:href="#m5a2eb191a0" x="36.430938" y="2.229723" style="stroke: #000000; stroke-width: 0.6"/>
      </g>
     </g>
    </g>
    <g id="text_17">
     <!-- FWHM (cm) -->
     <g transform="translate(9.038438 130.119546) rotate(-90) scale(0.1 -0.1)">
      <defs>
       <path id="DejaVuSerif-46" d="M 353 0 
L 353 331 
L 947 331 
L 947 4331 
L 353 4331 
L 353 4666 
L 4172 4666 
L 4172 3628 
L 3788 3628 
L 3788 4281 
L 1581 4281 
L 1581 2719 
L 3175 2719 
L 3175 3303 
L 3559 3303 
L 3559 1753 
L 3175 1753 
L 3175 2338 
L 1581 2338 
L 1581 331 
L 2328 331 
L 2328 0 
L 353 0 
z
" transform="scale(0.015625)"/>
       <path id="DejaVuSerif-57" d="M 4878 0 
L 4366 0 
L 3297 3794 
L 2228 0 
L 1716 0 
L 494 4331 
L 31 4331 
L 31 4666 
L 1734 4666 
L 1734 4331 
L 1153 4331 
L 2125 884 
L 3188 4666 
L 3694 4666 
L 4775 844 
L 5753 4331 
L 5216 4331 
L 5216 4666 
L 6559 4666 
L 6559 4331 
L 6100 4331 
L 4878 0 
z
" transform="scale(0.015625)"/>
       <path id="DejaVuSerif-48" d="M 353 0 
L 353 331 
L 947 331 
L 947 4331 
L 353 4331 
L 353 4666 
L 2175 4666 
L 2175 4331 
L 1581 4331 
L 1581 2719 
L 4000 2719 
L 4000 4331 
L 3406 4331 
L 3406 4666 
L 5228 4666 
L 5228 4331 
L 4634 4331 
L 4634 331 
L 5228 331 
L 5228 0 
L 3406 0 
L 3406 331 
L 4000 331 
L 4000 2338 
L 1581 2338 
L 1581 331 
L 2175 331 
L 2175 0 
L 353 0 
z
" transform="scale(0.015625)"/>
       <path id="DejaVuSerif-4d" d="M 353 0 
L 353 331 
L 947 331 
L 947 4331 
L 319 4331 
L 319 4666 
L 1678 4666 
L 3316 1344 
L 4953 4666 
L 6228 4666 
L 6228 4331 
L 5606 4331 
L 5606 331 
L 6203 331 
L 6203 0 
L 4378 0 
L 4378 331 
L 4972 331 
L 4972 3938 
L 3372 684 
L 2931 684 
L 1331 3938 
L 1331 331 
L 1925 331 
L 1925 0 
L 353 0 
z
" transform="scale(0.015625)"/>
       <path id="DejaVuSerif-63" d="M 3291 997 
Q 3169 466 2822 187 
Q 2475 -91 1925 -91 
Q 1200 -91 759 389 
Q 319 869 319 1663 
Q 319 2459 759 2936 
Q 1200 3413 1925 3413 
Q 2241 3413 2553 3339 
Q 2866 3266 3181 3116 
L 3181 2266 
L 2847 2266 
Q 2781 2703 2561 2903 
Q 2341 3103 1931 3103 
Q 1466 3103 1228 2742 
Q 991 2381 991 1663 
Q 991 944 1227 581 
Q 1463 219 1931 219 
Q 2303 219 2525 412 
Q 2747 606 2828 997 
L 3291 997 
z
" transform="scale(0.015625)"/>
       <path id="DejaVuSerif-6d" d="M 3316 2675 
Q 3481 3041 3739 3227 
Q 3997 3413 4341 3413 
Q 4863 3413 5119 3089 
Q 5375 2766 5375 2113 
L 5375 331 
L 5894 331 
L 5894 0 
L 4300 0 
L 4300 331 
L 4800 331 
L 4800 2047 
Q 4800 2556 4650 2772 
Q 4500 2988 4153 2988 
Q 3769 2988 3567 2697 
Q 3366 2406 3366 1850 
L 3366 331 
L 3866 331 
L 3866 0 
L 2291 0 
L 2291 331 
L 2791 331 
L 2791 2069 
Q 2791 2566 2641 2777 
Q 2491 2988 2144 2988 
Q 1759 2988 1557 2697 
Q 1356 2406 1356 1850 
L 1356 331 
L 1856 331 
L 1856 0 
L 263 0 
L 263 331 
L 781 331 
L 781 2994 
L 231 2994 
L 231 3322 
L 1356 3322 
L 1356 2731 
Q 1516 3063 1762 3238 
Q 2009 3413 2322 3413 
Q 2709 3413 2968 3220 
Q 3228 3028 3316 2675 
z
" transform="scale(0.015625)"/>
      </defs>
      <use xlink:href="#DejaVuSerif-46"/>
      <use xlink:href="#DejaVuSerif-57" transform="translate(69.384766 0)"/>
      <use xlink:href="#DejaVuSerif-48" transform="translate(172.167969 0)"/>
      <use xlink:href="#DejaVuSerif-4d" transform="translate(259.375 0)"/>
      <use xlink:href="#DejaVuSerif-20" transform="translate(361.767578 0)"/>
      <use xlink:href="#DejaVuSerif-28" transform="translate(393.554688 0)"/>
      <use xlink:href="#DejaVuSerif-63" transform="translate(432.568359 0)"/>
      <use xlink:href="#DejaVuSerif-6d" transform="translate(488.574219 0)"/>
      <use xlink:href="#DejaVuSerif-29" transform="translate(583.398438 0)"/>
     </g>
    </g>
   </g>
   <g id="FillBetweenPolyCollection_1">
    <defs>
     <path id="m62dedd3eb9" d="M 50.291776 -40.057392 
L 50.291776 -39.697459 
L 71.082676 -48.122407 
L 92.144587 -53.844414 
L 113.30523 -58.882741 
L 134.373119 -62.864238 
L 155.594993 -66.938753 
L 176.796758 -70.614694 
L 198.208665 -73.843514 
L 219.709884 -77.844649 
L 241.196066 -80.610499 
L 262.72482 -83.606225 
L 284.379117 -86.936683 
L 284.379117 -88.404554 
L 284.379117 -88.404554 
L 262.72482 -85.15904 
L 241.196066 -81.91019 
L 219.709884 -79.022379 
L 198.208665 -75.811002 
L 176.796758 -71.952173 
L 155.594993 -68.144324 
L 134.373119 -63.976002 
L 113.30523 -59.998943 
L 92.144587 -55.017253 
L 71.082676 -49.041655 
L 50.291776 -40.057392 
z
"/>
    </defs>
    <g clip-path="url(#p5746fb389e)">
     <use xlink:href="#m62dedd3eb9" x="0" y="227.386905" style="fill: #3182bd; fill-opacity: 0.14"/>
    </g>
   </g>
   <g id="FillBetweenPolyCollection_2">
    <defs>
     <path id="m58990eec08" d="M 49.169143 -44.008221 
L 49.169143 -42.049837 
L 62.993995 -58.861178 
L 77.310326 -70.358305 
L 91.943684 -81.203376 
L 106.923958 -90.977989 
L 122.199518 -100.034023 
L 137.847176 -108.418623 
L 153.840845 -116.016264 
L 170.227625 -123.586878 
L 186.938134 -132.187025 
L 203.959872 -140.220775 
L 221.289033 -147.651091 
L 221.289033 -153.36264 
L 221.289033 -153.36264 
L 203.959872 -144.203545 
L 186.938134 -136.354153 
L 170.227625 -129.305379 
L 153.840845 -120.248717 
L 137.847176 -111.777161 
L 122.199518 -104.100595 
L 106.923958 -94.34929 
L 91.943684 -84.926379 
L 77.310326 -73.437607 
L 62.993995 -61.455726 
L 49.169143 -44.008221 
z
"/>
    </defs>
    <g clip-path="url(#p5746fb389e)">
     <use xlink:href="#m58990eec08" x="0" y="227.386905" style="fill: #e6550d; fill-opacity: 0.14"/>
    </g>
   </g>
   <g id="FillBetweenPolyCollection_3">
    <defs>
     <path id="mce2debbf20" d="M 48.237994 -46.891515 
L 48.237994 -44.841078 
L 56.328668 -67.421531 
L 64.86046 -87.795033 
L 73.720872 -101.134252 
L 82.980374 -118.234439 
L 92.642227 -130.22799 
L 102.652083 -140.899282 
L 113.059037 -158.21744 
L 123.939173 -169.737516 
L 135.008076 -185.592208 
L 146.462663 -193.416558 
L 158.321775 -207.900388 
L 158.321775 -217.077884 
L 158.321775 -217.077884 
L 146.462663 -203.738954 
L 135.008076 -191.934719 
L 123.939173 -179.869142 
L 113.059037 -166.741486 
L 102.652083 -151.589879 
L 92.642227 -138.800989 
L 82.980374 -125.404934 
L 73.720872 -108.834525 
L 64.86046 -92.915786 
L 56.328668 -73.881901 
L 48.237994 -46.891515 
z
"/>
    </defs>
    <g clip-path="url(#p5746fb389e)">
     <use xlink:href="#mce2debbf20" x="0" y="227.386905" style="fill: #31a354; fill-opacity: 0.14"/>
    </g>
   </g>
   <g id="line2d_137">
    <path d="M 50.291776 187.508288 
L 71.082676 178.816699 
L 92.144587 172.902163 
L 113.30523 167.868548 
L 134.373119 163.982751 
L 155.594993 159.812654 
L 176.796758 156.117051 
L 198.208665 152.498808 
L 219.709884 148.961092 
L 241.196066 146.125176 
L 262.72482 143.005358 
L 284.379117 139.720276 
" clip-path="url(#p5746fb389e)" style="fill: none; stroke: #3182bd; stroke-width: 1.8; stroke-linecap: square"/>
   </g>
   <g id="line2d_138">
    <path d="M 49.169143 184.351781 
L 62.993995 167.300673 
L 77.310326 155.597362 
L 91.943684 144.334559 
L 106.923958 134.535114 
L 122.199518 125.994711 
L 137.847176 117.073944 
L 153.840845 108.798689 
L 170.227625 101.015902 
L 186.938134 93.364516 
L 203.959872 84.625893 
L 221.289033 76.970882 
" clip-path="url(#p5746fb389e)" style="fill: none; stroke: #e6550d; stroke-width: 1.8; stroke-linecap: square"/>
   </g>
   <g id="line2d_139">
    <path d="M 48.237994 181.635537 
L 56.328668 157.223985 
L 64.86046 136.110099 
L 73.720872 121.457892 
L 82.980374 106.259267 
L 92.642227 92.209669 
L 102.652083 80.521462 
L 113.059037 63.111852 
L 123.939173 51.9312 
L 135.008076 39.941298 
L 146.462663 27.717743 
L 158.321775 14.955986 
" clip-path="url(#p5746fb389e)" style="fill: none; stroke: #31a354; stroke-width: 1.8; stroke-linecap: square"/>
   </g>
   <g id="patch_3">
    <path d="M 36.430938 196.558467 
L 36.430938 1.44 
" style="fill: none; stroke: #000000; stroke-width: 0.8; stroke-linejoin: miter; stroke-linecap: square"/>
   </g>
   <g id="patch_4">
    <path d="M 36.430937 196.558467 
L 296.186173 196.558467 
" style="fill: none; stroke: #000000; stroke-width: 0.8; stroke-linejoin: miter; stroke-linecap: square"/>
   </g>
   <g id="PathCollection_1">
    <defs>
     <path id="m2470f4b8df" d="M 0 2.54951 
C 0.676138 2.54951 1.324674 2.280877 1.802776 1.802776 
C 2.280877 1.324674 2.54951 0.676138 2.54951 0 
C 2.54951 -0.676138 2.280877 -1.324674 1.802776 -1.802776 
C 1.324674 -2.280877 0.676138 -2.54951 0 -2.54951 
C -0.676138 -2.54951 -1.324674 -2.280877 -1.802776 -1.802776 
C -2.280877 -1.324674 -2.54951 -0.676138 -2.54951 0 
C -2.54951 0.676138 -2.280877 1.324674 -1.802776 1.802776 
C -1.324674 2.280877 -0.676138 2.54951 0 2.54951 
z
" style="stroke: #ffffff; stroke-width: 0.5"/>
    </defs>
    <g clip-path="url(#p5746fb389e)">
     <use xlink:href="#m2470f4b8df" x="50.291776" y="187.508288" style="fill: #3182bd; stroke: #ffffff; stroke-width: 0.5"/>
     <use xlink:href="#m2470f4b8df" x="71.082676" y="178.816699" style="fill: #3182bd; stroke: #ffffff; stroke-width: 0.5"/>
     <use xlink:href="#m2470f4b8df" x="92.144587" y="172.902163" style="fill: #3182bd; stroke: #ffffff; stroke-width: 0.5"/>
     <use xlink:href="#m2470f4b8df" x="113.30523" y="167.868548" style="fill: #3182bd; stroke: #ffffff; stroke-width: 0.5"/>
     <use xlink:href="#m2470f4b8df" x="134.373119" y="163.982751" style="fill: #3182bd; stroke: #ffffff; stroke-width: 0.5"/>
     <use xlink:href="#m2470f4b8df" x="155.594993" y="159.812654" style="fill: #3182bd; stroke: #ffffff; stroke-width: 0.5"/>
     <use xlink:href="#m2470f4b8df" x="176.796758" y="156.117051" style="fill: #3182bd; stroke: #ffffff; stroke-width: 0.5"/>
     <use xlink:href="#m2470f4b8df" x="198.208665" y="152.498808" style="fill: #3182bd; stroke: #ffffff; stroke-width: 0.5"/>
     <use xlink:href="#m2470f4b8df" x="219.709884" y="148.961092" style="fill: #3182bd; stroke: #ffffff; stroke-width: 0.5"/>
     <use xlink:href="#m2470f4b8df" x="241.196066" y="146.125176" style="fill: #3182bd; stroke: #ffffff; stroke-width: 0.5"/>
     <use xlink:href="#m2470f4b8df" x="262.72482" y="143.005358" style="fill: #3182bd; stroke: #ffffff; stroke-width: 0.5"/>
     <use xlink:href="#m2470f4b8df" x="284.379117" y="139.720276" style="fill: #3182bd; stroke: #ffffff; stroke-width: 0.5"/>
    </g>
   </g>
   <g id="PathCollection_2">
    <defs>
     <path id="m2f3dc79b25" d="M 0 2.54951 
C 0.676138 2.54951 1.324674 2.280877 1.802776 1.802776 
C 2.280877 1.324674 2.54951 0.676138 2.54951 0 
C 2.54951 -0.676138 2.280877 -1.324674 1.802776 -1.802776 
C 1.324674 -2.280877 0.676138 -2.54951 0 -2.54951 
C -0.676138 -2.54951 -1.324674 -2.280877 -1.802776 -1.802776 
C -2.280877 -1.324674 -2.54951 -0.676138 -2.54951 0 
C -2.54951 0.676138 -2.280877 1.324674 -1.802776 1.802776 
C -1.324674 2.280877 -0.676138 2.54951 0 2.54951 
z
" style="stroke: #ffffff; stroke-width: 0.5"/>
    </defs>
    <g clip-path="url(#p5746fb389e)">
     <use xlink:href="#m2f3dc79b25" x="49.169143" y="184.351781" style="fill: #e6550d; stroke: #ffffff; stroke-width: 0.5"/>
     <use xlink:href="#m2f3dc79b25" x="62.993995" y="167.300673" style="fill: #e6550d; stroke: #ffffff; stroke-width: 0.5"/>
     <use xlink:href="#m2f3dc79b25" x="77.310326" y="155.597362" style="fill: #e6550d; stroke: #ffffff; stroke-width: 0.5"/>
     <use xlink:href="#m2f3dc79b25" x="91.943684" y="144.334559" style="fill: #e6550d; stroke: #ffffff; stroke-width: 0.5"/>
     <use xlink:href="#m2f3dc79b25" x="106.923958" y="134.535114" style="fill: #e6550d; stroke: #ffffff; stroke-width: 0.5"/>
     <use xlink:href="#m2f3dc79b25" x="122.199518" y="125.994711" style="fill: #e6550d; stroke: #ffffff; stroke-width: 0.5"/>
     <use xlink:href="#m2f3dc79b25" x="137.847176" y="117.073944" style="fill: #e6550d; stroke: #ffffff; stroke-width: 0.5"/>
     <use xlink:href="#m2f3dc79b25" x="153.840845" y="108.798689" style="fill: #e6550d; stroke: #ffffff; stroke-width: 0.5"/>
     <use xlink:href="#m2f3dc79b25" x="170.227625" y="101.015902" style="fill: #e6550d; stroke: #ffffff; stroke-width: 0.5"/>
     <use xlink:href="#m2f3dc79b25" x="186.938134" y="93.364516" style="fill: #e6550d; stroke: #ffffff; stroke-width: 0.5"/>
     <use xlink:href="#m2f3dc79b25" x="203.959872" y="84.625893" style="fill: #e6550d; stroke: #ffffff; stroke-width: 0.5"/>
     <use xlink:href="#m2f3dc79b25" x="221.289033" y="76.970882" style="fill: #e6550d; stroke: #ffffff; stroke-width: 0.5"/>
    </g>
   </g>
   <g id="PathCollection_3">
    <defs>
     <path id="m55ea1e5cfe" d="M 0 2.54951 
C 0.676138 2.54951 1.324674 2.280877 1.802776 1.802776 
C 2.280877 1.324674 2.54951 0.676138 2.54951 0 
C 2.54951 -0.676138 2.280877 -1.324674 1.802776 -1.802776 
C 1.324674 -2.280877 0.676138 -2.54951 0 -2.54951 
C -0.676138 -2.54951 -1.324674 -2.280877 -1.802776 -1.802776 
C -2.280877 -1.324674 -2.54951 -0.676138 -2.54951 0 
C -2.54951 0.676138 -2.280877 1.324674 -1.802776 1.802776 
C -1.324674 2.280877 -0.676138 2.54951 0 2.54951 
z
" style="stroke: #ffffff; stroke-width: 0.5"/>
    </defs>
    <g clip-path="url(#p5746fb389e)">
     <use xlink:href="#m55ea1e5cfe" x="48.237994" y="181.635537" style="fill: #31a354; stroke: #ffffff; stroke-width: 0.5"/>
     <use xlink:href="#m55ea1e5cfe" x="56.328668" y="157.223985" style="fill: #31a354; stroke: #ffffff; stroke-width: 0.5"/>
     <use xlink:href="#m55ea1e5cfe" x="64.86046" y="136.110099" style="fill: #31a354; stroke: #ffffff; stroke-width: 0.5"/>
     <use xlink:href="#m55ea1e5cfe" x="73.720872" y="121.457892" style="fill: #31a354; stroke: #ffffff; stroke-width: 0.5"/>
     <use xlink:href="#m55ea1e5cfe" x="82.980374" y="106.259267" style="fill: #31a354; stroke: #ffffff; stroke-width: 0.5"/>
     <use xlink:href="#m55ea1e5cfe" x="92.642227" y="92.209669" style="fill: #31a354; stroke: #ffffff; stroke-width: 0.5"/>
     <use xlink:href="#m55ea1e5cfe" x="102.652083" y="80.521462" style="fill: #31a354; stroke: #ffffff; stroke-width: 0.5"/>
     <use xlink:href="#m55ea1e5cfe" x="113.059037" y="63.111852" style="fill: #31a354; stroke: #ffffff; stroke-width: 0.5"/>
     <use xlink:href="#m55ea1e5cfe" x="123.939173" y="51.9312" style="fill: #31a354; stroke: #ffffff; stroke-width: 0.5"/>
     <use xlink:href="#m55ea1e5cfe" x="135.008076" y="39.941298" style="fill: #31a354; stroke: #ffffff; stroke-width: 0.5"/>
     <use xlink:href="#m55ea1e5cfe" x="146.462663" y="27.717743" style="fill: #31a354; stroke: #ffffff; stroke-width: 0.5"/>
     <use xlink:href="#m55ea1e5cfe" x="158.321775" y="14.955986" style="fill: #31a354; stroke: #ffffff; stroke-width: 0.5"/>
    </g>
   </g>
   <g id="text_18">
    <!-- $\times 10^{6}$ -->
    <g style="opacity: 0.95" transform="translate(270.210649 192.449797) scale(0.1 -0.1)">
     <defs>
      <path id="Cmsy10-a3" d="M 941 184 
Q 941 234 972 275 
L 2303 1600 
L 972 2931 
Q 941 2963 941 3016 
Q 941 3063 978 3103 
Q 1016 3144 1069 3144 
Q 1113 3144 1166 3103 
L 2491 1778 
L 3809 3103 
Q 3863 3144 3903 3144 
Q 3956 3144 3993 3106 
Q 4031 3069 4031 3016 
Q 4031 2963 4000 2931 
L 2669 1600 
L 4000 275 
Q 4031 234 4031 184 
Q 4031 131 3993 93 
Q 3956 56 3903 56 
Q 3856 56 3809 103 
L 2491 1422 
L 1166 103 
Q 1119 56 1069 56 
Q 1016 56 978 97 
Q 941 138 941 184 
z
" transform="scale(0.015625)"/>
      <path id="Cmr10-31" d="M 594 0 
L 594 225 
Q 1394 225 1394 428 
L 1394 3788 
Q 1063 3628 556 3628 
L 556 3853 
Q 1341 3853 1741 4263 
L 1831 4263 
Q 1853 4263 1873 4245 
Q 1894 4228 1894 4206 
L 1894 428 
Q 1894 225 2694 225 
L 2694 0 
L 594 0 
z
" transform="scale(0.015625)"/>
      <path id="Cmr10-30" d="M 1600 -141 
Q 816 -141 533 504 
Q 250 1150 250 2041 
Q 250 2597 351 3087 
Q 453 3578 754 3920 
Q 1056 4263 1600 4263 
Q 2022 4263 2290 4056 
Q 2559 3850 2700 3523 
Q 2841 3197 2892 2823 
Q 2944 2450 2944 2041 
Q 2944 1491 2842 1011 
Q 2741 531 2444 195 
Q 2147 -141 1600 -141 
z
M 1600 25 
Q 1956 25 2131 390 
Q 2306 756 2347 1200 
Q 2388 1644 2388 2144 
Q 2388 2625 2347 3031 
Q 2306 3438 2132 3767 
Q 1959 4097 1600 4097 
Q 1238 4097 1063 3765 
Q 888 3434 847 3029 
Q 806 2625 806 2144 
Q 806 1788 823 1472 
Q 841 1156 916 820 
Q 991 484 1158 254 
Q 1325 25 1600 25 
z
" transform="scale(0.015625)"/>
      <path id="Cmr10-36" d="M 1600 -141 
Q 1203 -141 937 70 
Q 672 281 526 617 
Q 381 953 325 1322 
Q 269 1691 269 2069 
Q 269 2575 466 3084 
Q 663 3594 1045 3928 
Q 1428 4263 1953 4263 
Q 2172 4263 2361 4180 
Q 2550 4097 2658 3936 
Q 2766 3775 2766 3547 
Q 2766 3416 2677 3327 
Q 2588 3238 2456 3238 
Q 2331 3238 2240 3328 
Q 2150 3419 2150 3547 
Q 2150 3672 2240 3762 
Q 2331 3853 2456 3853 
L 2491 3853 
Q 2409 3969 2261 4023 
Q 2113 4078 1953 4078 
Q 1759 4078 1595 3993 
Q 1431 3909 1300 3765 
Q 1169 3622 1081 3448 
Q 994 3275 945 3053 
Q 897 2831 884 2637 
Q 872 2444 872 2150 
Q 984 2413 1190 2580 
Q 1397 2747 1656 2747 
Q 1941 2747 2175 2631 
Q 2409 2516 2578 2311 
Q 2747 2106 2836 1843 
Q 2925 1581 2925 1313 
Q 2925 938 2758 598 
Q 2591 259 2287 59 
Q 1984 -141 1600 -141 
z
M 1600 63 
Q 1847 63 1997 175 
Q 2147 288 2217 473 
Q 2288 659 2305 848 
Q 2322 1038 2322 1313 
Q 2322 1675 2287 1931 
Q 2253 2188 2100 2383 
Q 1947 2578 1631 2578 
Q 1372 2578 1205 2403 
Q 1038 2228 961 1961 
Q 884 1694 884 1447 
Q 884 1363 891 1319 
Q 891 1309 889 1303 
Q 888 1297 884 1288 
Q 884 1013 940 731 
Q 997 450 1156 256 
Q 1316 63 1600 63 
z
" transform="scale(0.015625)"/>
     </defs>
     <use xlink:href="#Cmsy10-a3" transform="translate(0 0.109375)"/>
     <use xlink:href="#Cmr10-31" transform="translate(77.685547 0.109375)"/>
     <use xlink:href="#Cmr10-30" transform="translate(127.685547 0.109375)"/>
     <use xlink:href="#Cmr10-36" transform="translate(182.149687 38.373438) scale(0.7)"/>
    </g>
   </g>
   <g id="legend_1">
    <g id="patch_5">
     <path d="M 43.430938 68.1525 
L 99.730938 68.1525 
Q 101.730938 68.1525 101.730938 66.1525 
L 101.730938 8.44 
Q 101.730938 6.44 99.730938 6.44 
L 43.430938 6.44 
Q 41.430938 6.44 41.430938 8.44 
L 41.430938 66.1525 
Q 41.430938 68.1525 43.430938 68.1525 
z
" style="fill: #ffffff; opacity: 0.95; stroke: #f5f5f5; stroke-linejoin: miter"/>
    </g>
    <g id="text_19">
     <!-- Radius -->
     <g transform="translate(54.136406 18.038438) scale(0.1 -0.1)">
      <defs>
       <path id="DejaVuSerif-52" d="M 3066 2316 
Q 3284 2256 3442 2114 
Q 3600 1972 3725 1716 
L 4403 331 
L 4972 331 
L 4972 0 
L 3872 0 
L 3144 1484 
Q 2934 1916 2759 2042 
Q 2584 2169 2278 2169 
L 1581 2169 
L 1581 331 
L 2241 331 
L 2241 0 
L 353 0 
L 353 331 
L 947 331 
L 947 4331 
L 353 4331 
L 353 4666 
L 2719 4666 
Q 3400 4666 3770 4341 
Q 4141 4016 4141 3419 
Q 4141 2938 3870 2661 
Q 3600 2384 3066 2316 
z
M 1581 2503 
L 2503 2503 
Q 2975 2503 3200 2726 
Q 3425 2950 3425 3419 
Q 3425 3888 3200 4109 
Q 2975 4331 2503 4331 
L 1581 4331 
L 1581 2503 
z
" transform="scale(0.015625)"/>
       <path id="DejaVuSerif-64" d="M 3359 331 
L 3909 331 
L 3909 0 
L 2784 0 
L 2784 519 
Q 2616 206 2355 57 
Q 2094 -91 1709 -91 
Q 1097 -91 708 395 
Q 319 881 319 1663 
Q 319 2444 706 2928 
Q 1094 3413 1709 3413 
Q 2094 3413 2355 3264 
Q 2616 3116 2784 2803 
L 2784 4531 
L 2241 4531 
L 2241 4863 
L 3359 4863 
L 3359 331 
z
M 2784 1497 
L 2784 1825 
Q 2784 2422 2554 2737 
Q 2325 3053 1888 3053 
Q 1444 3053 1217 2703 
Q 991 2353 991 1663 
Q 991 975 1217 622 
Q 1444 269 1888 269 
Q 2325 269 2554 583 
Q 2784 897 2784 1497 
z
" transform="scale(0.015625)"/>
       <path id="DejaVuSerif-75" d="M 2266 3322 
L 3341 3322 
L 3341 331 
L 3884 331 
L 3884 0 
L 2766 0 
L 2766 588 
Q 2606 256 2353 82 
Q 2100 -91 1766 -91 
Q 1213 -91 952 223 
Q 691 538 691 1209 
L 691 2988 
L 172 2988 
L 172 3322 
L 1269 3322 
L 1269 1388 
Q 1269 781 1417 556 
Q 1566 331 1947 331 
Q 2347 331 2556 625 
Q 2766 919 2766 1478 
L 2766 2988 
L 2266 2988 
L 2266 3322 
z
" transform="scale(0.015625)"/>
      </defs>
      <use xlink:href="#DejaVuSerif-52"/>
      <use xlink:href="#DejaVuSerif-61" transform="translate(77.542969 0)"/>
      <use xlink:href="#DejaVuSerif-64" transform="translate(137.162109 0)"/>
      <use xlink:href="#DejaVuSerif-69" transform="translate(201.175781 0)"/>
      <use xlink:href="#DejaVuSerif-75" transform="translate(233.158203 0)"/>
      <use xlink:href="#DejaVuSerif-73" transform="translate(297.5625 0)"/>
     </g>
    </g>
    <g id="PathCollection_4">
     <g>
      <use xlink:href="#m2470f4b8df" x="55.430938" y="30.091563" style="fill: #3182bd; stroke: #ffffff; stroke-width: 0.5"/>
     </g>
    </g>
    <g id="text_20">
     <!-- $5\,\mathrm{cm}$ -->
     <g transform="translate(73.430937 32.716563) scale(0.1 -0.1)">
      <defs>
       <path id="Cmr10-35" d="M 556 728 
Q 622 541 758 387 
Q 894 234 1080 148 
Q 1266 63 1466 63 
Q 1928 63 2103 422 
Q 2278 781 2278 1294 
Q 2278 1516 2270 1667 
Q 2263 1819 2228 1959 
Q 2169 2184 2020 2353 
Q 1872 2522 1656 2522 
Q 1441 2522 1286 2456 
Q 1131 2391 1034 2303 
Q 938 2216 863 2119 
Q 788 2022 769 2016 
L 697 2016 
Q 681 2016 657 2036 
Q 634 2056 634 2075 
L 634 4213 
Q 634 4228 654 4245 
Q 675 4263 697 4263 
L 716 4263 
Q 1147 4056 1631 4056 
Q 2106 4056 2547 4263 
L 2566 4263 
Q 2588 4263 2606 4247 
Q 2625 4231 2625 4213 
L 2625 4153 
Q 2625 4122 2613 4122 
Q 2394 3831 2064 3668 
Q 1734 3506 1381 3506 
Q 1125 3506 856 3578 
L 856 2369 
Q 1069 2541 1236 2614 
Q 1403 2688 1663 2688 
Q 2016 2688 2295 2484 
Q 2575 2281 2725 1954 
Q 2875 1628 2875 1288 
Q 2875 903 2686 575 
Q 2497 247 2172 53 
Q 1847 -141 1466 -141 
Q 1150 -141 886 21 
Q 622 184 470 459 
Q 319 734 319 1044 
Q 319 1188 412 1278 
Q 506 1369 647 1369 
Q 788 1369 883 1276 
Q 978 1184 978 1044 
Q 978 906 883 811 
Q 788 716 647 716 
Q 625 716 597 720 
Q 569 725 556 728 
z
" transform="scale(0.015625)"/>
       <path id="Cmr10-63" d="M 1594 -72 
Q 1206 -72 890 129 
Q 575 331 394 667 
Q 213 1003 213 1381 
Q 213 1759 392 2106 
Q 572 2453 889 2661 
Q 1206 2869 1594 2869 
Q 1969 2869 2276 2722 
Q 2584 2575 2584 2241 
Q 2584 2116 2495 2023 
Q 2406 1931 2278 1931 
Q 2150 1931 2061 2023 
Q 1972 2116 1972 2241 
Q 1972 2353 2044 2436 
Q 2116 2519 2222 2541 
Q 2000 2681 1600 2681 
Q 1294 2681 1106 2478 
Q 919 2275 844 1975 
Q 769 1675 769 1381 
Q 769 1072 861 783 
Q 953 494 1158 305 
Q 1363 116 1672 116 
Q 1975 116 2187 302 
Q 2400 488 2478 788 
Q 2478 825 2528 825 
L 2606 825 
Q 2625 825 2640 808 
Q 2656 791 2656 769 
L 2656 750 
Q 2559 372 2271 150 
Q 1984 -72 1594 -72 
z
" transform="scale(0.015625)"/>
       <path id="Cmr10-6d" d="M 191 0 
L 191 225 
Q 409 225 550 259 
Q 691 294 691 428 
L 691 2175 
Q 691 2347 639 2423 
Q 588 2500 491 2517 
Q 394 2534 191 2534 
L 191 2759 
L 1119 2828 
L 1119 2203 
Q 1247 2478 1498 2653 
Q 1750 2828 2047 2828 
Q 2784 2828 2913 2228 
Q 3041 2497 3287 2662 
Q 3534 2828 3828 2828 
Q 4119 2828 4317 2734 
Q 4516 2641 4616 2448 
Q 4716 2256 4716 1966 
L 4716 428 
Q 4716 294 4858 259 
Q 5000 225 5216 225 
L 5216 0 
L 3750 0 
L 3750 225 
Q 3969 225 4109 259 
Q 4250 294 4250 428 
L 4250 1947 
Q 4250 2269 4159 2466 
Q 4069 2663 3788 2663 
Q 3419 2663 3178 2366 
Q 2938 2069 2938 1691 
L 2938 428 
Q 2938 294 3078 259 
Q 3219 225 3438 225 
L 3438 0 
L 1972 0 
L 1972 225 
Q 2191 225 2331 259 
Q 2472 294 2472 428 
L 2472 1947 
Q 2472 2259 2381 2461 
Q 2291 2663 2009 2663 
Q 1638 2663 1398 2366 
Q 1159 2069 1159 1691 
L 1159 428 
Q 1159 294 1300 259 
Q 1441 225 1656 225 
L 1656 0 
L 191 0 
z
" transform="scale(0.015625)"/>
      </defs>
      <use xlink:href="#Cmr10-35" transform="translate(0 0.390625)"/>
      <use xlink:href="#Cmr10-63" transform="translate(64.632454 0.390625)"/>
      <use xlink:href="#Cmr10-6d" transform="translate(109.01722 0.390625)"/>
     </g>
    </g>
    <g id="PathCollection_5">
     <g>
      <use xlink:href="#m2f3dc79b25" x="55.430938" y="44.769688" style="fill: #e6550d; stroke: #ffffff; stroke-width: 0.5"/>
     </g>
    </g>
    <g id="text_21">
     <!-- $10\,\mathrm{cm}$ -->
     <g transform="translate(73.430937 47.394688) scale(0.1 -0.1)">
      <use xlink:href="#Cmr10-31" transform="translate(0 0.390625)"/>
      <use xlink:href="#Cmr10-30" transform="translate(50 0.390625)"/>
      <use xlink:href="#Cmr10-63" transform="translate(114.632454 0.390625)"/>
      <use xlink:href="#Cmr10-6d" transform="translate(159.01722 0.390625)"/>
     </g>
    </g>
    <g id="PathCollection_6">
     <g>
      <use xlink:href="#m55ea1e5cfe" x="55.430938" y="59.447813" style="fill: #31a354; stroke: #ffffff; stroke-width: 0.5"/>
     </g>
    </g>
    <g id="text_22">
     <!-- $15\,\mathrm{cm}$ -->
     <g transform="translate(73.430937 62.072813) scale(0.1 -0.1)">
      <use xlink:href="#Cmr10-31" transform="translate(0 0.390625)"/>
      <use xlink:href="#Cmr10-35" transform="translate(50 0.390625)"/>
      <use xlink:href="#Cmr10-63" transform="translate(114.632454 0.390625)"/>
      <use xlink:href="#Cmr10-6d" transform="translate(159.01722 0.390625)"/>
     </g>
    </g>
   </g>
  </g>
 </g>
 <defs>
  <clipPath id="p5746fb389e">
   <rect x="36.430938" y="1.44" width="259.755235" height="195.118467"/>
  </clipPath>
 </defs>
</svg>
