<?xml version="1.0" encoding="utf-8" standalone="no"?>
<!DOCTYPE svg PUBLIC "-//W3C//DTD SVG 1.1//EN"
  "http://www.w3.org/Graphics/SVG/1.1/DTD/svg11.dtd">
<svg xmlns:xlink="http://www.w3.org/1999/xlink" width="297.626173pt" height="227.386905pt" viewBox="0 0 297.626173 227.386905" xmlns="http://www.w3.org/2000/svg" version="1.1">
 <metadata>
  <rdf:RDF xmlns:dc="http://purl.org/dc/elements/1.1/" xmlns:cc="http://creativecommons.org/ns#" xmlns:rdf="http://www.w3.org/1999/02/22-rdf-syntax-ns#">
   <cc:Work>
    <dc:type rdf:resource="http://purl.org/dc/dcmitype/StillImage"/>
    <dc:date>2026-02-11T10:32:12.992570</dc:date>
    <dc:format>image/svg+xml</dc:format>
    <dc:creator>
     <cc:Agent>
      <dc:title>Matplotlib v3.10.8, https://matplotlib.org/</dc:title>
     </cc:Agent>
    </dc:creator>
   </cc:Work>
  </rdf:RDF>
 </metadata>
 <defs>
  <style type="text/css">*{stroke-linejoin: round; stroke-linecap: butt}</style>
 </defs>
 <g id="figure_1">
  <g id="patch_1">
   <path d="M 0 227.386905 
L 297.626173 227.386905 
L 297.626173 0 
L 0 0 
z
" style="fill: #ffffff"/>
  </g>
  <g id="axes_1">
   <g id="patch_2">
    <path d="M 36.430938 196.558467 
L 296.186173 196.558467 
L 296.186173 1.44 
L 36.430938 1.44 
z
" style="fill: #f5f5f5"/>
   </g>
   <g id="matplotlib.axis_1">
    <g id="xtick_1">
     <g id="line2d_1">
      <path d="M 47.014205 196.558467 
L 47.014205 1.44 
" clip-path="url(#pf76f60cb1e)" style="fill: none; stroke: #ffffff; stroke-opacity: 0.5; stroke-width: 0.8; stroke-linecap: square"/>
     </g>
     <g id="line2d_2">
      <defs>
       <path id="m2cc66d17bf" d="M 0 0 
L 0 3.5 
" style="stroke: #000000; stroke-width: 0.8"/>
      </defs>
      <g>
       <use xlink:href="#m2cc66d17bf" x="47.014205" y="196.558467" style="stroke: #000000; stroke-width: 0.8"/>
      </g>
     </g>
     <g id="text_1">
      <!-- 0 -->
      <g transform="translate(44.15108 210.397061) scale(0.09 -0.09)">
       <defs>
        <path id="DejaVuSerif-30" d="M 2034 219 
Q 2513 219 2750 744 
Q 2988 1269 2988 2328 
Q 2988 3391 2750 3916 
Q 2513 4441 2034 4441 
Q 1556 4441 1318 3916 
Q 1081 3391 1081 2328 
Q 1081 1269 1318 744 
Q 1556 219 2034 219 
z
M 2034 -91 
Q 1275 -91 848 546 
Q 422 1184 422 2328 
Q 422 3475 848 4112 
Q 1275 4750 2034 4750 
Q 2797 4750 3222 4112 
Q 3647 3475 3647 2328 
Q 3647 1184 3222 546 
Q 2797 -91 2034 -91 
z
" transform="scale(0.015625)"/>
       </defs>
       <use xlink:href="#DejaVuSerif-30"/>
      </g>
     </g>
    </g>
    <g id="xtick_2">
     <g id="line2d_3">
      <path d="M 85.828929 196.558467 
L 85.828929 1.44 
" clip-path="url(#pf76f60cb1e)" style="fill: none; stroke: #ffffff; stroke-opacity: 0.5; stroke-width: 0.8; stroke-linecap: square"/>
     </g>
     <g id="line2d_4">
      <g>
       <use xlink:href="#m2cc66d17bf" x="85.828929" y="196.558467" style="stroke: #000000; stroke-width: 0.8"/>
      </g>
     </g>
     <g id="text_2">
      <!-- 20 -->
      <g transform="translate(80.102679 210.397061) scale(0.09 -0.09)">
       <defs>
        <path id="DejaVuSerif-32" d="M 819 3553 
L 469 3553 
L 469 4384 
Q 803 4563 1142 4656 
Q 1481 4750 1806 4750 
Q 2534 4750 2956 4397 
Q 3378 4044 3378 3438 
Q 3378 2753 2422 1800 
Q 2347 1728 2309 1691 
L 1131 513 
L 3078 513 
L 3078 1088 
L 3444 1088 
L 3444 0 
L 434 0 
L 434 341 
L 1850 1753 
Q 2319 2222 2519 2614 
Q 2719 3006 2719 3438 
Q 2719 3909 2473 4175 
Q 2228 4441 1797 4441 
Q 1350 4441 1106 4219 
Q 863 3997 819 3553 
z
" transform="scale(0.015625)"/>
       </defs>
       <use xlink:href="#DejaVuSerif-32"/>
       <use xlink:href="#DejaVuSerif-30" transform="translate(63.623047 0)"/>
      </g>
     </g>
    </g>
    <g id="xtick_3">
     <g id="line2d_5">
      <path d="M 124.643653 196.558467 
L 124.643653 1.44 
" clip-path="url(#pf76f60cb1e)" style="fill: none; stroke: #ffffff; stroke-opacity: 0.5; stroke-width: 0.8; stroke-linecap: square"/>
     </g>
     <g id="line2d_6">
      <g>
       <use xlink:href="#m2cc66d17bf" x="124.643653" y="196.558467" style="stroke: #000000; stroke-width: 0.8"/>
      </g>
     </g>
     <g id="text_3">
      <!-- 40 -->
      <g transform="translate(118.917403 210.397061) scale(0.09 -0.09)">
       <defs>
        <path id="DejaVuSerif-34" d="M 2234 1581 
L 2234 4063 
L 641 1581 
L 2234 1581 
z
M 3609 0 
L 1484 0 
L 1484 331 
L 2234 331 
L 2234 1247 
L 197 1247 
L 197 1588 
L 2241 4750 
L 2859 4750 
L 2859 1581 
L 3750 1581 
L 3750 1247 
L 2859 1247 
L 2859 331 
L 3609 331 
L 3609 0 
z
" transform="scale(0.015625)"/>
       </defs>
       <use xlink:href="#DejaVuSerif-34"/>
       <use xlink:href="#DejaVuSerif-30" transform="translate(63.623047 0)"/>
      </g>
     </g>
    </g>
    <g id="xtick_4">
     <g id="line2d_7">
      <path d="M 163.458377 196.558467 
L 163.458377 1.44 
" clip-path="url(#pf76f60cb1e)" style="fill: none; stroke: #ffffff; stroke-opacity: 0.5; stroke-width: 0.8; stroke-linecap: square"/>
     </g>
     <g id="line2d_8">
      <g>
       <use xlink:href="#m2cc66d17bf" x="163.458377" y="196.558467" style="stroke: #000000; stroke-width: 0.8"/>
      </g>
     </g>
     <g id="text_4">
      <!-- 60 -->
      <g transform="translate(157.732127 210.397061) scale(0.09 -0.09)">
       <defs>
        <path id="DejaVuSerif-36" d="M 2094 219 
Q 2534 219 2771 542 
Q 3009 866 3009 1472 
Q 3009 2078 2771 2401 
Q 2534 2725 2094 2725 
Q 1647 2725 1412 2412 
Q 1178 2100 1178 1509 
Q 1178 888 1415 553 
Q 1653 219 2094 219 
z
M 1075 2569 
Q 1288 2803 1556 2918 
Q 1825 3034 2163 3034 
Q 2859 3034 3264 2615 
Q 3669 2197 3669 1472 
Q 3669 763 3233 336 
Q 2797 -91 2069 -91 
Q 1278 -91 853 498 
Q 428 1088 428 2181 
Q 428 3406 931 4078 
Q 1434 4750 2350 4750 
Q 2597 4750 2869 4703 
Q 3141 4656 3425 4563 
L 3425 3794 
L 3072 3794 
Q 3034 4109 2831 4275 
Q 2628 4441 2284 4441 
Q 1678 4441 1381 3981 
Q 1084 3522 1075 2569 
z
" transform="scale(0.015625)"/>
       </defs>
       <use xlink:href="#DejaVuSerif-36"/>
       <use xlink:href="#DejaVuSerif-30" transform="translate(63.623047 0)"/>
      </g>
     </g>
    </g>
    <g id="xtick_5">
     <g id="line2d_9">
      <path d="M 202.273101 196.558467 
L 202.273101 1.44 
" clip-path="url(#pf76f60cb1e)" style="fill: none; stroke: #ffffff; stroke-opacity: 0.5; stroke-width: 0.8; stroke-linecap: square"/>
     </g>
     <g id="line2d_10">
      <g>
       <use xlink:href="#m2cc66d17bf" x="202.273101" y="196.558467" style="stroke: #000000; stroke-width: 0.8"/>
      </g>
     </g>
     <g id="text_5">
      <!-- 80 -->
      <g transform="translate(196.546851 210.397061) scale(0.09 -0.09)">
       <defs>
        <path id="DejaVuSerif-38" d="M 2981 1275 
Q 2981 1775 2732 2051 
Q 2484 2328 2034 2328 
Q 1584 2328 1336 2051 
Q 1088 1775 1088 1275 
Q 1088 772 1336 495 
Q 1584 219 2034 219 
Q 2484 219 2732 495 
Q 2981 772 2981 1275 
z
M 2853 3541 
Q 2853 3966 2637 4203 
Q 2422 4441 2034 4441 
Q 1650 4441 1433 4203 
Q 1216 3966 1216 3541 
Q 1216 3113 1433 2875 
Q 1650 2638 2034 2638 
Q 2422 2638 2637 2875 
Q 2853 3113 2853 3541 
z
M 2516 2484 
Q 3047 2413 3344 2092 
Q 3641 1772 3641 1275 
Q 3641 619 3225 264 
Q 2809 -91 2034 -91 
Q 1263 -91 845 264 
Q 428 619 428 1275 
Q 428 1772 725 2092 
Q 1022 2413 1556 2484 
Q 1084 2569 832 2842 
Q 581 3116 581 3541 
Q 581 4103 968 4426 
Q 1356 4750 2034 4750 
Q 2713 4750 3100 4426 
Q 3488 4103 3488 3541 
Q 3488 3116 3236 2842 
Q 2984 2569 2516 2484 
z
" transform="scale(0.015625)"/>
       </defs>
       <use xlink:href="#DejaVuSerif-38"/>
       <use xlink:href="#DejaVuSerif-30" transform="translate(63.623047 0)"/>
      </g>
     </g>
    </g>
    <g id="xtick_6">
     <g id="line2d_11">
      <path d="M 241.087825 196.558467 
L 241.087825 1.44 
" clip-path="url(#pf76f60cb1e)" style="fill: none; stroke: #ffffff; stroke-opacity: 0.5; stroke-width: 0.8; stroke-linecap: square"/>
     </g>
     <g id="line2d_12">
      <g>
       <use xlink:href="#m2cc66d17bf" x="241.087825" y="196.558467" style="stroke: #000000; stroke-width: 0.8"/>
      </g>
     </g>
     <g id="text_6">
      <!-- 100 -->
      <g transform="translate(232.49845 210.397061) scale(0.09 -0.09)">
       <defs>
        <path id="DejaVuSerif-31" d="M 909 0 
L 909 331 
L 1722 331 
L 1722 4213 
L 781 3603 
L 781 4013 
L 1919 4750 
L 2350 4750 
L 2350 331 
L 3163 331 
L 3163 0 
L 909 0 
z
" transform="scale(0.015625)"/>
       </defs>
       <use xlink:href="#DejaVuSerif-31"/>
       <use xlink:href="#DejaVuSerif-30" transform="translate(63.623047 0)"/>
       <use xlink:href="#DejaVuSerif-30" transform="translate(127.246094 0)"/>
      </g>
     </g>
    </g>
    <g id="xtick_7">
     <g id="line2d_13">
      <path d="M 279.902549 196.558467 
L 279.902549 1.44 
" clip-path="url(#pf76f60cb1e)" style="fill: none; stroke: #ffffff; stroke-opacity: 0.5; stroke-width: 0.8; stroke-linecap: square"/>
     </g>
     <g id="line2d_14">
      <g>
       <use xlink:href="#m2cc66d17bf" x="279.902549" y="196.558467" style="stroke: #000000; stroke-width: 0.8"/>
      </g>
     </g>
     <g id="text_7">
      <!-- 120 -->
      <g transform="translate(271.313174 210.397061) scale(0.09 -0.09)">
       <use xlink:href="#DejaVuSerif-31"/>
       <use xlink:href="#DejaVuSerif-32" transform="translate(63.623047 0)"/>
       <use xlink:href="#DejaVuSerif-30" transform="translate(127.246094 0)"/>
      </g>
     </g>
    </g>
    <g id="xtick_8">
     <g id="line2d_15">
      <path d="M 37.310524 196.558467 
L 37.310524 1.44 
" clip-path="url(#pf76f60cb1e)" style="fill: none; stroke: #ffffff; stroke-opacity: 0.25; stroke-width: 0.8; stroke-linecap: square"/>
     </g>
     <g id="line2d_16">
      <defs>
       <path id="m0b293d5204" d="M 0 0 
L 0 2 
" style="stroke: #000000; stroke-width: 0.6"/>
      </defs>
      <g>
       <use xlink:href="#m0b293d5204" x="37.310524" y="196.558467" style="stroke: #000000; stroke-width: 0.6"/>
      </g>
     </g>
    </g>
    <g id="xtick_9">
     <g id="line2d_17">
      <path d="M 56.717886 196.558467 
L 56.717886 1.44 
" clip-path="url(#pf76f60cb1e)" style="fill: none; stroke: #ffffff; stroke-opacity: 0.25; stroke-width: 0.8; stroke-linecap: square"/>
     </g>
     <g id="line2d_18">
      <g>
       <use xlink:href="#m0b293d5204" x="56.717886" y="196.558467" style="stroke: #000000; stroke-width: 0.6"/>
      </g>
     </g>
    </g>
    <g id="xtick_10">
     <g id="line2d_19">
      <path d="M 66.421567 196.558467 
L 66.421567 1.44 
" clip-path="url(#pf76f60cb1e)" style="fill: none; stroke: #ffffff; stroke-opacity: 0.25; stroke-width: 0.8; stroke-linecap: square"/>
     </g>
     <g id="line2d_20">
      <g>
       <use xlink:href="#m0b293d5204" x="66.421567" y="196.558467" style="stroke: #000000; stroke-width: 0.6"/>
      </g>
     </g>
    </g>
    <g id="xtick_11">
     <g id="line2d_21">
      <path d="M 76.125248 196.558467 
L 76.125248 1.44 
" clip-path="url(#pf76f60cb1e)" style="fill: none; stroke: #ffffff; stroke-opacity: 0.25; stroke-width: 0.8; stroke-linecap: square"/>
     </g>
     <g id="line2d_22">
      <g>
       <use xlink:href="#m0b293d5204" x="76.125248" y="196.558467" style="stroke: #000000; stroke-width: 0.6"/>
      </g>
     </g>
    </g>
    <g id="xtick_12">
     <g id="line2d_23">
      <path d="M 95.53261 196.558467 
L 95.53261 1.44 
" clip-path="url(#pf76f60cb1e)" style="fill: none; stroke: #ffffff; stroke-opacity: 0.25; stroke-width: 0.8; stroke-linecap: square"/>
     </g>
     <g id="line2d_24">
      <g>
       <use xlink:href="#m0b293d5204" x="95.53261" y="196.558467" style="stroke: #000000; stroke-width: 0.6"/>
      </g>
     </g>
    </g>
    <g id="xtick_13">
     <g id="line2d_25">
      <path d="M 105.236291 196.558467 
L 105.236291 1.44 
" clip-path="url(#pf76f60cb1e)" style="fill: none; stroke: #ffffff; stroke-opacity: 0.25; stroke-width: 0.8; stroke-linecap: square"/>
     </g>
     <g id="line2d_26">
      <g>
       <use xlink:href="#m0b293d5204" x="105.236291" y="196.558467" style="stroke: #000000; stroke-width: 0.6"/>
      </g>
     </g>
    </g>
    <g id="xtick_14">
     <g id="line2d_27">
      <path d="M 114.939972 196.558467 
L 114.939972 1.44 
" clip-path="url(#pf76f60cb1e)" style="fill: none; stroke: #ffffff; stroke-opacity: 0.25; stroke-width: 0.8; stroke-linecap: square"/>
     </g>
     <g id="line2d_28">
      <g>
       <use xlink:href="#m0b293d5204" x="114.939972" y="196.558467" style="stroke: #000000; stroke-width: 0.6"/>
      </g>
     </g>
    </g>
    <g id="xtick_15">
     <g id="line2d_29">
      <path d="M 134.347334 196.558467 
L 134.347334 1.44 
" clip-path="url(#pf76f60cb1e)" style="fill: none; stroke: #ffffff; stroke-opacity: 0.25; stroke-width: 0.8; stroke-linecap: square"/>
     </g>
     <g id="line2d_30">
      <g>
       <use xlink:href="#m0b293d5204" x="134.347334" y="196.558467" style="stroke: #000000; stroke-width: 0.6"/>
      </g>
     </g>
    </g>
    <g id="xtick_16">
     <g id="line2d_31">
      <path d="M 144.051015 196.558467 
L 144.051015 1.44 
" clip-path="url(#pf76f60cb1e)" style="fill: none; stroke: #ffffff; stroke-opacity: 0.25; stroke-width: 0.8; stroke-linecap: square"/>
     </g>
     <g id="line2d_32">
      <g>
       <use xlink:href="#m0b293d5204" x="144.051015" y="196.558467" style="stroke: #000000; stroke-width: 0.6"/>
      </g>
     </g>
    </g>
    <g id="xtick_17">
     <g id="line2d_33">
      <path d="M 153.754696 196.558467 
L 153.754696 1.44 
" clip-path="url(#pf76f60cb1e)" style="fill: none; stroke: #ffffff; stroke-opacity: 0.25; stroke-width: 0.8; stroke-linecap: square"/>
     </g>
     <g id="line2d_34">
      <g>
       <use xlink:href="#m0b293d5204" x="153.754696" y="196.558467" style="stroke: #000000; stroke-width: 0.6"/>
      </g>
     </g>
    </g>
    <g id="xtick_18">
     <g id="line2d_35">
      <path d="M 173.162058 196.558467 
L 173.162058 1.44 
" clip-path="url(#pf76f60cb1e)" style="fill: none; stroke: #ffffff; stroke-opacity: 0.25; stroke-width: 0.8; stroke-linecap: square"/>
     </g>
     <g id="line2d_36">
      <g>
       <use xlink:href="#m0b293d5204" x="173.162058" y="196.558467" style="stroke: #000000; stroke-width: 0.6"/>
      </g>
     </g>
    </g>
    <g id="xtick_19">
     <g id="line2d_37">
      <path d="M 182.865739 196.558467 
L 182.865739 1.44 
" clip-path="url(#pf76f60cb1e)" style="fill: none; stroke: #ffffff; stroke-opacity: 0.25; stroke-width: 0.8; stroke-linecap: square"/>
     </g>
     <g id="line2d_38">
      <g>
       <use xlink:href="#m0b293d5204" x="182.865739" y="196.558467" style="stroke: #000000; stroke-width: 0.6"/>
      </g>
     </g>
    </g>
    <g id="xtick_20">
     <g id="line2d_39">
      <path d="M 192.56942 196.558467 
L 192.56942 1.44 
" clip-path="url(#pf76f60cb1e)" style="fill: none; stroke: #ffffff; stroke-opacity: 0.25; stroke-width: 0.8; stroke-linecap: square"/>
     </g>
     <g id="line2d_40">
      <g>
       <use xlink:href="#m0b293d5204" x="192.56942" y="196.558467" style="stroke: #000000; stroke-width: 0.6"/>
      </g>
     </g>
    </g>
    <g id="xtick_21">
     <g id="line2d_41">
      <path d="M 211.976782 196.558467 
L 211.976782 1.44 
" clip-path="url(#pf76f60cb1e)" style="fill: none; stroke: #ffffff; stroke-opacity: 0.25; stroke-width: 0.8; stroke-linecap: square"/>
     </g>
     <g id="line2d_42">
      <g>
       <use xlink:href="#m0b293d5204" x="211.976782" y="196.558467" style="stroke: #000000; stroke-width: 0.6"/>
      </g>
     </g>
    </g>
    <g id="xtick_22">
     <g id="line2d_43">
      <path d="M 221.680463 196.558467 
L 221.680463 1.44 
" clip-path="url(#pf76f60cb1e)" style="fill: none; stroke: #ffffff; stroke-opacity: 0.25; stroke-width: 0.8; stroke-linecap: square"/>
     </g>
     <g id="line2d_44">
      <g>
       <use xlink:href="#m0b293d5204" x="221.680463" y="196.558467" style="stroke: #000000; stroke-width: 0.6"/>
      </g>
     </g>
    </g>
    <g id="xtick_23">
     <g id="line2d_45">
      <path d="M 231.384144 196.558467 
L 231.384144 1.44 
" clip-path="url(#pf76f60cb1e)" style="fill: none; stroke: #ffffff; stroke-opacity: 0.25; stroke-width: 0.8; stroke-linecap: square"/>
     </g>
     <g id="line2d_46">
      <g>
       <use xlink:href="#m0b293d5204" x="231.384144" y="196.558467" style="stroke: #000000; stroke-width: 0.6"/>
      </g>
     </g>
    </g>
    <g id="xtick_24">
     <g id="line2d_47">
      <path d="M 250.791506 196.558467 
L 250.791506 1.44 
" clip-path="url(#pf76f60cb1e)" style="fill: none; stroke: #ffffff; stroke-opacity: 0.25; stroke-width: 0.8; stroke-linecap: square"/>
     </g>
     <g id="line2d_48">
      <g>
       <use xlink:href="#m0b293d5204" x="250.791506" y="196.558467" style="stroke: #000000; stroke-width: 0.6"/>
      </g>
     </g>
    </g>
    <g id="xtick_25">
     <g id="line2d_49">
      <path d="M 260.495187 196.558467 
L 260.495187 1.44 
" clip-path="url(#pf76f60cb1e)" style="fill: none; stroke: #ffffff; stroke-opacity: 0.25; stroke-width: 0.8; stroke-linecap: square"/>
     </g>
     <g id="line2d_50">
      <g>
       <use xlink:href="#m0b293d5204" x="260.495187" y="196.558467" style="stroke: #000000; stroke-width: 0.6"/>
      </g>
     </g>
    </g>
    <g id="xtick_26">
     <g id="line2d_51">
      <path d="M 270.198868 196.558467 
L 270.198868 1.44 
" clip-path="url(#pf76f60cb1e)" style="fill: none; stroke: #ffffff; stroke-opacity: 0.25; stroke-width: 0.8; stroke-linecap: square"/>
     </g>
     <g id="line2d_52">
      <g>
       <use xlink:href="#m0b293d5204" x="270.198868" y="196.558467" style="stroke: #000000; stroke-width: 0.6"/>
      </g>
     </g>
    </g>
    <g id="xtick_27">
     <g id="line2d_53">
      <path d="M 289.60623 196.558467 
L 289.60623 1.44 
" clip-path="url(#pf76f60cb1e)" style="fill: none; stroke: #ffffff; stroke-opacity: 0.25; stroke-width: 0.8; stroke-linecap: square"/>
     </g>
     <g id="line2d_54">
      <g>
       <use xlink:href="#m0b293d5204" x="289.60623" y="196.558467" style="stroke: #000000; stroke-width: 0.6"/>
      </g>
     </g>
    </g>
    <g id="text_8">
     <!-- Gain (%) -->
     <g transform="translate(144.271836 223.867217) scale(0.1 -0.1)">
      <defs>
       <path id="DejaVuSerif-47" d="M 4097 3272 
Q 3988 3856 3641 4136 
Q 3294 4416 2675 4416 
Q 1869 4416 1472 3897 
Q 1075 3378 1075 2328 
Q 1075 1300 1484 772 
Q 1894 244 2688 244 
Q 3041 244 3362 331 
Q 3684 419 3975 594 
L 3975 1797 
L 3097 1797 
L 3097 2131 
L 4609 2131 
L 4609 391 
Q 4194 150 3714 29 
Q 3234 -91 2688 -91 
Q 1631 -91 995 570 
Q 359 1231 359 2328 
Q 359 3434 996 4092 
Q 1634 4750 2713 4750 
Q 3113 4750 3539 4658 
Q 3966 4566 4447 4378 
L 4447 3272 
L 4097 3272 
z
" transform="scale(0.015625)"/>
       <path id="DejaVuSerif-61" d="M 2547 1044 
L 2547 1747 
L 1806 1747 
Q 1378 1747 1168 1562 
Q 959 1378 959 997 
Q 959 650 1171 447 
Q 1384 244 1747 244 
Q 2106 244 2326 466 
Q 2547 688 2547 1044 
z
M 3122 2075 
L 3122 331 
L 3634 331 
L 3634 0 
L 2547 0 
L 2547 359 
Q 2356 128 2106 18 
Q 1856 -91 1522 -91 
Q 969 -91 644 203 
Q 319 497 319 997 
Q 319 1513 691 1797 
Q 1063 2081 1741 2081 
L 2547 2081 
L 2547 2309 
Q 2547 2688 2317 2895 
Q 2088 3103 1672 3103 
Q 1328 3103 1125 2947 
Q 922 2791 872 2484 
L 575 2484 
L 575 3156 
Q 875 3284 1158 3348 
Q 1441 3413 1709 3413 
Q 2400 3413 2761 3070 
Q 3122 2728 3122 2075 
z
" transform="scale(0.015625)"/>
       <path id="DejaVuSerif-69" d="M 622 4353 
Q 622 4497 726 4603 
Q 831 4709 978 4709 
Q 1122 4709 1226 4603 
Q 1331 4497 1331 4353 
Q 1331 4206 1228 4103 
Q 1125 4000 978 4000 
Q 831 4000 726 4103 
Q 622 4206 622 4353 
z
M 1356 331 
L 1900 331 
L 1900 0 
L 231 0 
L 231 331 
L 781 331 
L 781 2988 
L 231 2988 
L 231 3322 
L 1356 3322 
L 1356 331 
z
" transform="scale(0.015625)"/>
       <path id="DejaVuSerif-6e" d="M 263 0 
L 263 331 
L 781 331 
L 781 2988 
L 231 2988 
L 231 3322 
L 1356 3322 
L 1356 2731 
Q 1516 3069 1770 3241 
Q 2025 3413 2363 3413 
Q 2913 3413 3172 3097 
Q 3431 2781 3431 2113 
L 3431 331 
L 3944 331 
L 3944 0 
L 2356 0 
L 2356 331 
L 2853 331 
L 2853 1931 
Q 2853 2541 2703 2767 
Q 2553 2994 2175 2994 
Q 1775 2994 1565 2701 
Q 1356 2409 1356 1850 
L 1356 331 
L 1856 331 
L 1856 0 
L 263 0 
z
" transform="scale(0.015625)"/>
       <path id="DejaVuSerif-20" transform="scale(0.015625)"/>
       <path id="DejaVuSerif-28" d="M 2041 -997 
Q 1281 -656 893 83 
Q 506 822 506 1931 
Q 506 3044 893 3783 
Q 1281 4522 2041 4863 
L 2041 4556 
Q 1559 4225 1350 3623 
Q 1141 3022 1141 1931 
Q 1141 844 1350 242 
Q 1559 -359 2041 -691 
L 2041 -997 
z
" transform="scale(0.015625)"/>
       <path id="DejaVuSerif-25" d="M 1434 4459 
Q 1159 4459 1004 4200 
Q 850 3941 850 3475 
Q 850 3016 1008 2753 
Q 1166 2491 1434 2491 
Q 1700 2491 1854 2752 
Q 2009 3013 2009 3475 
Q 2009 3938 1854 4198 
Q 1700 4459 1434 4459 
z
M 4653 2169 
Q 4381 2169 4226 1906 
Q 4072 1644 4072 1178 
Q 4072 719 4228 458 
Q 4384 197 4653 197 
Q 4922 197 5075 458 
Q 5228 719 5228 1178 
Q 5228 1641 5073 1905 
Q 4919 2169 4653 2169 
z
M 4653 2450 
Q 5147 2450 5437 2106 
Q 5728 1763 5728 1178 
Q 5728 594 5436 251 
Q 5144 -91 4653 -91 
Q 4153 -91 3862 251 
Q 3572 594 3572 1178 
Q 3572 1766 3864 2108 
Q 4156 2450 4653 2450 
z
M 4263 4750 
L 4738 4750 
L 1819 -91 
L 1344 -91 
L 4263 4750 
z
M 1428 4750 
Q 1922 4750 2215 4408 
Q 2509 4066 2509 3481 
Q 2509 2891 2217 2550 
Q 1925 2209 1428 2209 
Q 931 2209 642 2551 
Q 353 2894 353 3481 
Q 353 4063 643 4406 
Q 934 4750 1428 4750 
z
" transform="scale(0.015625)"/>
       <path id="DejaVuSerif-29" d="M 453 -997 
L 453 -691 
Q 934 -359 1145 242 
Q 1356 844 1356 1931 
Q 1356 3022 1145 3623 
Q 934 4225 453 4556 
L 453 4863 
Q 1216 4522 1603 3783 
Q 1991 3044 1991 1931 
Q 1991 822 1603 83 
Q 1216 -656 453 -997 
z
" transform="scale(0.015625)"/>
      </defs>
      <use xlink:href="#DejaVuSerif-47"/>
      <use xlink:href="#DejaVuSerif-61" transform="translate(79.882812 0)"/>
      <use xlink:href="#DejaVuSerif-69" transform="translate(139.501953 0)"/>
      <use xlink:href="#DejaVuSerif-6e" transform="translate(171.484375 0)"/>
      <use xlink:href="#DejaVuSerif-20" transform="translate(235.888672 0)"/>
      <use xlink:href="#DejaVuSerif-28" transform="translate(267.675781 0)"/>
      <use xlink:href="#DejaVuSerif-25" transform="translate(306.689453 0)"/>
      <use xlink:href="#DejaVuSerif-29" transform="translate(401.708984 0)"/>
     </g>
    </g>
   </g>
   <g id="matplotlib.axis_2">
    <g id="ytick_1">
     <g id="line2d_55">
      <path d="M 36.430938 193.184875 
L 296.186173 193.184875 
" clip-path="url(#pf76f60cb1e)" style="fill: none; stroke: #ffffff; stroke-opacity: 0.5; stroke-width: 0.8; stroke-linecap: square"/>
     </g>
     <g id="line2d_56">
      <defs>
       <path id="m0b965cafe1" d="M 0 0 
L -3.5 0 
" style="stroke: #000000; stroke-width: 0.8"/>
      </defs>
      <g>
       <use xlink:href="#m0b965cafe1" x="36.430938" y="193.184875" style="stroke: #000000; stroke-width: 0.8"/>
      </g>
     </g>
     <g id="text_9">
      <!-- 0.0 -->
      <g transform="translate(15.118125 196.604172) scale(0.09 -0.09)">
       <defs>
        <path id="DejaVuSerif-2e" d="M 603 325 
Q 603 500 722 622 
Q 841 744 1019 744 
Q 1191 744 1312 622 
Q 1434 500 1434 325 
Q 1434 153 1312 31 
Q 1191 -91 1019 -91 
Q 841 -91 722 29 
Q 603 150 603 325 
z
" transform="scale(0.015625)"/>
       </defs>
       <use xlink:href="#DejaVuSerif-30"/>
       <use xlink:href="#DejaVuSerif-2e" transform="translate(63.623047 0)"/>
       <use xlink:href="#DejaVuSerif-30" transform="translate(95.410156 0)"/>
      </g>
     </g>
    </g>
    <g id="ytick_2">
     <g id="line2d_57">
      <path d="M 36.430938 161.982683 
L 296.186173 161.982683 
" clip-path="url(#pf76f60cb1e)" style="fill: none; stroke: #ffffff; stroke-opacity: 0.5; stroke-width: 0.8; stroke-linecap: square"/>
     </g>
     <g id="line2d_58">
      <g>
       <use xlink:href="#m0b965cafe1" x="36.430938" y="161.982683" style="stroke: #000000; stroke-width: 0.8"/>
      </g>
     </g>
     <g id="text_10">
      <!-- 1.0 -->
      <g transform="translate(15.118125 165.40198) scale(0.09 -0.09)">
       <use xlink:href="#DejaVuSerif-31"/>
       <use xlink:href="#DejaVuSerif-2e" transform="translate(63.623047 0)"/>
       <use xlink:href="#DejaVuSerif-30" transform="translate(95.410156 0)"/>
      </g>
     </g>
    </g>
    <g id="ytick_3">
     <g id="line2d_59">
      <path d="M 36.430938 130.780492 
L 296.186173 130.780492 
" clip-path="url(#pf76f60cb1e)" style="fill: none; stroke: #ffffff; stroke-opacity: 0.5; stroke-width: 0.8; stroke-linecap: square"/>
     </g>
     <g id="line2d_60">
      <g>
       <use xlink:href="#m0b965cafe1" x="36.430938" y="130.780492" style="stroke: #000000; stroke-width: 0.8"/>
      </g>
     </g>
     <g id="text_11">
      <!-- 2.0 -->
      <g transform="translate(15.118125 134.199789) scale(0.09 -0.09)">
       <use xlink:href="#DejaVuSerif-32"/>
       <use xlink:href="#DejaVuSerif-2e" transform="translate(63.623047 0)"/>
       <use xlink:href="#DejaVuSerif-30" transform="translate(95.410156 0)"/>
      </g>
     </g>
    </g>
    <g id="ytick_4">
     <g id="line2d_61">
      <path d="M 36.430938 99.5783 
L 296.186173 99.5783 
" clip-path="url(#pf76f60cb1e)" style="fill: none; stroke: #ffffff; stroke-opacity: 0.5; stroke-width: 0.8; stroke-linecap: square"/>
     </g>
     <g id="line2d_62">
      <g>
       <use xlink:href="#m0b965cafe1" x="36.430938" y="99.5783" style="stroke: #000000; stroke-width: 0.8"/>
      </g>
     </g>
     <g id="text_12">
      <!-- 3.0 -->
      <g transform="translate(15.118125 102.997597) scale(0.09 -0.09)">
       <defs>
        <path id="DejaVuSerif-33" d="M 622 4469 
Q 988 4606 1323 4678 
Q 1659 4750 1953 4750 
Q 2638 4750 3022 4454 
Q 3406 4159 3406 3634 
Q 3406 3213 3140 2930 
Q 2875 2647 2388 2547 
Q 2963 2466 3280 2130 
Q 3597 1794 3597 1259 
Q 3597 606 3158 257 
Q 2719 -91 1894 -91 
Q 1528 -91 1179 -12 
Q 831 66 488 225 
L 488 1131 
L 838 1131 
Q 869 681 1141 450 
Q 1413 219 1906 219 
Q 2384 219 2661 495 
Q 2938 772 2938 1253 
Q 2938 1803 2653 2086 
Q 2369 2369 1819 2369 
L 1522 2369 
L 1522 2688 
L 1678 2688 
Q 2225 2688 2498 2914 
Q 2772 3141 2772 3597 
Q 2772 4006 2547 4223 
Q 2322 4441 1900 4441 
Q 1478 4441 1245 4241 
Q 1013 4041 972 3647 
L 622 3647 
L 622 4469 
z
" transform="scale(0.015625)"/>
       </defs>
       <use xlink:href="#DejaVuSerif-33"/>
       <use xlink:href="#DejaVuSerif-2e" transform="translate(63.623047 0)"/>
       <use xlink:href="#DejaVuSerif-30" transform="translate(95.410156 0)"/>
      </g>
     </g>
    </g>
    <g id="ytick_5">
     <g id="line2d_63">
      <path d="M 36.430938 68.376108 
L 296.186173 68.376108 
" clip-path="url(#pf76f60cb1e)" style="fill: none; stroke: #ffffff; stroke-opacity: 0.5; stroke-width: 0.8; stroke-linecap: square"/>
     </g>
     <g id="line2d_64">
      <g>
       <use xlink:href="#m0b965cafe1" x="36.430938" y="68.376108" style="stroke: #000000; stroke-width: 0.8"/>
      </g>
     </g>
     <g id="text_13">
      <!-- 4.0 -->
      <g transform="translate(15.118125 71.795405) scale(0.09 -0.09)">
       <use xlink:href="#DejaVuSerif-34"/>
       <use xlink:href="#DejaVuSerif-2e" transform="translate(63.623047 0)"/>
       <use xlink:href="#DejaVuSerif-30" transform="translate(95.410156 0)"/>
      </g>
     </g>
    </g>
    <g id="ytick_6">
     <g id="line2d_65">
      <path d="M 36.430938 37.173917 
L 296.186173 37.173917 
" clip-path="url(#pf76f60cb1e)" style="fill: none; stroke: #ffffff; stroke-opacity: 0.5; stroke-width: 0.8; stroke-linecap: square"/>
     </g>
     <g id="line2d_66">
      <g>
       <use xlink:href="#m0b965cafe1" x="36.430938" y="37.173917" style="stroke: #000000; stroke-width: 0.8"/>
      </g>
     </g>
     <g id="text_14">
      <!-- 5.0 -->
      <g transform="translate(15.118125 40.593214) scale(0.09 -0.09)">
       <defs>
        <path id="DejaVuSerif-35" d="M 3219 4666 
L 3219 4153 
L 1081 4153 
L 1081 2816 
Q 1244 2928 1461 2984 
Q 1678 3041 1947 3041 
Q 2703 3041 3140 2622 
Q 3578 2203 3578 1478 
Q 3578 738 3136 323 
Q 2694 -91 1894 -91 
Q 1572 -91 1234 -12 
Q 897 66 544 225 
L 544 1131 
L 897 1131 
Q 925 688 1179 453 
Q 1434 219 1894 219 
Q 2388 219 2653 544 
Q 2919 869 2919 1478 
Q 2919 2084 2655 2407 
Q 2391 2731 1894 2731 
Q 1613 2731 1398 2631 
Q 1184 2531 1019 2322 
L 750 2322 
L 750 4666 
L 3219 4666 
z
" transform="scale(0.015625)"/>
       </defs>
       <use xlink:href="#DejaVuSerif-35"/>
       <use xlink:href="#DejaVuSerif-2e" transform="translate(63.623047 0)"/>
       <use xlink:href="#DejaVuSerif-30" transform="translate(95.410156 0)"/>
      </g>
     </g>
    </g>
    <g id="ytick_7">
     <g id="line2d_67">
      <path d="M 36.430938 5.971725 
L 296.186173 5.971725 
" clip-path="url(#pf76f60cb1e)" style="fill: none; stroke: #ffffff; stroke-opacity: 0.5; stroke-width: 0.8; stroke-linecap: square"/>
     </g>
     <g id="line2d_68">
      <g>
       <use xlink:href="#m0b965cafe1" x="36.430938" y="5.971725" style="stroke: #000000; stroke-width: 0.8"/>
      </g>
     </g>
     <g id="text_15">
      <!-- 6.0 -->
      <g transform="translate(15.118125 9.391022) scale(0.09 -0.09)">
       <use xlink:href="#DejaVuSerif-36"/>
       <use xlink:href="#DejaVuSerif-2e" transform="translate(63.623047 0)"/>
       <use xlink:href="#DejaVuSerif-30" transform="translate(95.410156 0)"/>
      </g>
     </g>
    </g>
    <g id="ytick_8">
     <g id="line2d_69">
      <path d="M 36.430938 186.944437 
L 296.186173 186.944437 
" clip-path="url(#pf76f60cb1e)" style="fill: none; stroke: #ffffff; stroke-opacity: 0.25; stroke-width: 0.8; stroke-linecap: square"/>
     </g>
     <g id="line2d_70">
      <defs>
       <path id="m5d7115e4fc" d="M 0 0 
L -2 0 
" style="stroke: #000000; stroke-width: 0.6"/>
      </defs>
      <g>
       <use xlink:href="#m5d7115e4fc" x="36.430938" y="186.944437" style="stroke: #000000; stroke-width: 0.6"/>
      </g>
     </g>
    </g>
    <g id="ytick_9">
     <g id="line2d_71">
      <path d="M 36.430938 180.703998 
L 296.186173 180.703998 
" clip-path="url(#pf76f60cb1e)" style="fill: none; stroke: #ffffff; stroke-opacity: 0.25; stroke-width: 0.8; stroke-linecap: square"/>
     </g>
     <g id="line2d_72">
      <g>
       <use xlink:href="#m5d7115e4fc" x="36.430938" y="180.703998" style="stroke: #000000; stroke-width: 0.6"/>
      </g>
     </g>
    </g>
    <g id="ytick_10">
     <g id="line2d_73">
      <path d="M 36.430938 174.46356 
L 296.186173 174.46356 
" clip-path="url(#pf76f60cb1e)" style="fill: none; stroke: #ffffff; stroke-opacity: 0.25; stroke-width: 0.8; stroke-linecap: square"/>
     </g>
     <g id="line2d_74">
      <g>
       <use xlink:href="#m5d7115e4fc" x="36.430938" y="174.46356" style="stroke: #000000; stroke-width: 0.6"/>
      </g>
     </g>
    </g>
    <g id="ytick_11">
     <g id="line2d_75">
      <path d="M 36.430938 168.223122 
L 296.186173 168.223122 
" clip-path="url(#pf76f60cb1e)" style="fill: none; stroke: #ffffff; stroke-opacity: 0.25; stroke-width: 0.8; stroke-linecap: square"/>
     </g>
     <g id="line2d_76">
      <g>
       <use xlink:href="#m5d7115e4fc" x="36.430938" y="168.223122" style="stroke: #000000; stroke-width: 0.6"/>
      </g>
     </g>
    </g>
    <g id="ytick_12">
     <g id="line2d_77">
      <path d="M 36.430938 155.742245 
L 296.186173 155.742245 
" clip-path="url(#pf76f60cb1e)" style="fill: none; stroke: #ffffff; stroke-opacity: 0.25; stroke-width: 0.8; stroke-linecap: square"/>
     </g>
     <g id="line2d_78">
      <g>
       <use xlink:href="#m5d7115e4fc" x="36.430938" y="155.742245" style="stroke: #000000; stroke-width: 0.6"/>
      </g>
     </g>
    </g>
    <g id="ytick_13">
     <g id="line2d_79">
      <path d="M 36.430938 149.501807 
L 296.186173 149.501807 
" clip-path="url(#pf76f60cb1e)" style="fill: none; stroke: #ffffff; stroke-opacity: 0.25; stroke-width: 0.8; stroke-linecap: square"/>
     </g>
     <g id="line2d_80">
      <g>
       <use xlink:href="#m5d7115e4fc" x="36.430938" y="149.501807" style="stroke: #000000; stroke-width: 0.6"/>
      </g>
     </g>
    </g>
    <g id="ytick_14">
     <g id="line2d_81">
      <path d="M 36.430938 143.261368 
L 296.186173 143.261368 
" clip-path="url(#pf76f60cb1e)" style="fill: none; stroke: #ffffff; stroke-opacity: 0.25; stroke-width: 0.8; stroke-linecap: square"/>
     </g>
     <g id="line2d_82">
      <g>
       <use xlink:href="#m5d7115e4fc" x="36.430938" y="143.261368" style="stroke: #000000; stroke-width: 0.6"/>
      </g>
     </g>
    </g>
    <g id="ytick_15">
     <g id="line2d_83">
      <path d="M 36.430938 137.02093 
L 296.186173 137.02093 
" clip-path="url(#pf76f60cb1e)" style="fill: none; stroke: #ffffff; stroke-opacity: 0.25; stroke-width: 0.8; stroke-linecap: square"/>
     </g>
     <g id="line2d_84">
      <g>
       <use xlink:href="#m5d7115e4fc" x="36.430938" y="137.02093" style="stroke: #000000; stroke-width: 0.6"/>
      </g>
     </g>
    </g>
    <g id="ytick_16">
     <g id="line2d_85">
      <path d="M 36.430938 124.540053 
L 296.186173 124.540053 
" clip-path="url(#pf76f60cb1e)" style="fill: none; stroke: #ffffff; stroke-opacity: 0.25; stroke-width: 0.8; stroke-linecap: square"/>
     </g>
     <g id="line2d_86">
      <g>
       <use xlink:href="#m5d7115e4fc" x="36.430938" y="124.540053" style="stroke: #000000; stroke-width: 0.6"/>
      </g>
     </g>
    </g>
    <g id="ytick_17">
     <g id="line2d_87">
      <path d="M 36.430938 118.299615 
L 296.186173 118.299615 
" clip-path="url(#pf76f60cb1e)" style="fill: none; stroke: #ffffff; stroke-opacity: 0.25; stroke-width: 0.8; stroke-linecap: square"/>
     </g>
     <g id="line2d_88">
      <g>
       <use xlink:href="#m5d7115e4fc" x="36.430938" y="118.299615" style="stroke: #000000; stroke-width: 0.6"/>
      </g>
     </g>
    </g>
    <g id="ytick_18">
     <g id="line2d_89">
      <path d="M 36.430938 112.059177 
L 296.186173 112.059177 
" clip-path="url(#pf76f60cb1e)" style="fill: none; stroke: #ffffff; stroke-opacity: 0.25; stroke-width: 0.8; stroke-linecap: square"/>
     </g>
     <g id="line2d_90">
      <g>
       <use xlink:href="#m5d7115e4fc" x="36.430938" y="112.059177" style="stroke: #000000; stroke-width: 0.6"/>
      </g>
     </g>
    </g>
    <g id="ytick_19">
     <g id="line2d_91">
      <path d="M 36.430938 105.818738 
L 296.186173 105.818738 
" clip-path="url(#pf76f60cb1e)" style="fill: none; stroke: #ffffff; stroke-opacity: 0.25; stroke-width: 0.8; stroke-linecap: square"/>
     </g>
     <g id="line2d_92">
      <g>
       <use xlink:href="#m5d7115e4fc" x="36.430938" y="105.818738" style="stroke: #000000; stroke-width: 0.6"/>
      </g>
     </g>
    </g>
    <g id="ytick_20">
     <g id="line2d_93">
      <path d="M 36.430938 93.337862 
L 296.186173 93.337862 
" clip-path="url(#pf76f60cb1e)" style="fill: none; stroke: #ffffff; stroke-opacity: 0.25; stroke-width: 0.8; stroke-linecap: square"/>
     </g>
     <g id="line2d_94">
      <g>
       <use xlink:href="#m5d7115e4fc" x="36.430938" y="93.337862" style="stroke: #000000; stroke-width: 0.6"/>
      </g>
     </g>
    </g>
    <g id="ytick_21">
     <g id="line2d_95">
      <path d="M 36.430938 87.097423 
L 296.186173 87.097423 
" clip-path="url(#pf76f60cb1e)" style="fill: none; stroke: #ffffff; stroke-opacity: 0.25; stroke-width: 0.8; stroke-linecap: square"/>
     </g>
     <g id="line2d_96">
      <g>
       <use xlink:href="#m5d7115e4fc" x="36.430938" y="87.097423" style="stroke: #000000; stroke-width: 0.6"/>
      </g>
     </g>
    </g>
    <g id="ytick_22">
     <g id="line2d_97">
      <path d="M 36.430938 80.856985 
L 296.186173 80.856985 
" clip-path="url(#pf76f60cb1e)" style="fill: none; stroke: #ffffff; stroke-opacity: 0.25; stroke-width: 0.8; stroke-linecap: square"/>
     </g>
     <g id="line2d_98">
      <g>
       <use xlink:href="#m5d7115e4fc" x="36.430938" y="80.856985" style="stroke: #000000; stroke-width: 0.6"/>
      </g>
     </g>
    </g>
    <g id="ytick_23">
     <g id="line2d_99">
      <path d="M 36.430938 74.616547 
L 296.186173 74.616547 
" clip-path="url(#pf76f60cb1e)" style="fill: none; stroke: #ffffff; stroke-opacity: 0.25; stroke-width: 0.8; stroke-linecap: square"/>
     </g>
     <g id="line2d_100">
      <g>
       <use xlink:href="#m5d7115e4fc" x="36.430938" y="74.616547" style="stroke: #000000; stroke-width: 0.6"/>
      </g>
     </g>
    </g>
    <g id="ytick_24">
     <g id="line2d_101">
      <path d="M 36.430938 62.13567 
L 296.186173 62.13567 
" clip-path="url(#pf76f60cb1e)" style="fill: none; stroke: #ffffff; stroke-opacity: 0.25; stroke-width: 0.8; stroke-linecap: square"/>
     </g>
     <g id="line2d_102">
      <g>
       <use xlink:href="#m5d7115e4fc" x="36.430938" y="62.13567" style="stroke: #000000; stroke-width: 0.6"/>
      </g>
     </g>
    </g>
    <g id="ytick_25">
     <g id="line2d_103">
      <path d="M 36.430938 55.895232 
L 296.186173 55.895232 
" clip-path="url(#pf76f60cb1e)" style="fill: none; stroke: #ffffff; stroke-opacity: 0.25; stroke-width: 0.8; stroke-linecap: square"/>
     </g>
     <g id="line2d_104">
      <g>
       <use xlink:href="#m5d7115e4fc" x="36.430938" y="55.895232" style="stroke: #000000; stroke-width: 0.6"/>
      </g>
     </g>
    </g>
    <g id="ytick_26">
     <g id="line2d_105">
      <path d="M 36.430938 49.654793 
L 296.186173 49.654793 
" clip-path="url(#pf76f60cb1e)" style="fill: none; stroke: #ffffff; stroke-opacity: 0.25; stroke-width: 0.8; stroke-linecap: square"/>
     </g>
     <g id="line2d_106">
      <g>
       <use xlink:href="#m5d7115e4fc" x="36.430938" y="49.654793" style="stroke: #000000; stroke-width: 0.6"/>
      </g>
     </g>
    </g>
    <g id="ytick_27">
     <g id="line2d_107">
      <path d="M 36.430938 43.414355 
L 296.186173 43.414355 
" clip-path="url(#pf76f60cb1e)" style="fill: none; stroke: #ffffff; stroke-opacity: 0.25; stroke-width: 0.8; stroke-linecap: square"/>
     </g>
     <g id="line2d_108">
      <g>
       <use xlink:href="#m5d7115e4fc" x="36.430938" y="43.414355" style="stroke: #000000; stroke-width: 0.6"/>
      </g>
     </g>
    </g>
    <g id="ytick_28">
     <g id="line2d_109">
      <path d="M 36.430938 30.933478 
L 296.186173 30.933478 
" clip-path="url(#pf76f60cb1e)" style="fill: none; stroke: #ffffff; stroke-opacity: 0.25; stroke-width: 0.8; stroke-linecap: square"/>
     </g>
     <g id="line2d_110">
      <g>
       <use xlink:href="#m5d7115e4fc" x="36.430938" y="30.933478" style="stroke: #000000; stroke-width: 0.6"/>
      </g>
     </g>
    </g>
    <g id="ytick_29">
     <g id="line2d_111">
      <path d="M 36.430938 24.69304 
L 296.186173 24.69304 
" clip-path="url(#pf76f60cb1e)" style="fill: none; stroke: #ffffff; stroke-opacity: 0.25; stroke-width: 0.8; stroke-linecap: square"/>
     </g>
     <g id="line2d_112">
      <g>
       <use xlink:href="#m5d7115e4fc" x="36.430938" y="24.69304" style="stroke: #000000; stroke-width: 0.6"/>
      </g>
     </g>
    </g>
    <g id="ytick_30">
     <g id="line2d_113">
      <path d="M 36.430938 18.452602 
L 296.186173 18.452602 
" clip-path="url(#pf76f60cb1e)" style="fill: none; stroke: #ffffff; stroke-opacity: 0.25; stroke-width: 0.8; stroke-linecap: square"/>
     </g>
     <g id="line2d_114">
      <g>
       <use xlink:href="#m5d7115e4fc" x="36.430938" y="18.452602" style="stroke: #000000; stroke-width: 0.6"/>
      </g>
     </g>
    </g>
    <g id="ytick_31">
     <g id="line2d_115">
      <path d="M 36.430938 12.212163 
L 296.186173 12.212163 
" clip-path="url(#pf76f60cb1e)" style="fill: none; stroke: #ffffff; stroke-opacity: 0.25; stroke-width: 0.8; stroke-linecap: square"/>
     </g>
     <g id="line2d_116">
      <g>
       <use xlink:href="#m5d7115e4fc" x="36.430938" y="12.212163" style="stroke: #000000; stroke-width: 0.6"/>
      </g>
     </g>
    </g>
    <g id="text_16">
     <!-- FWHM (cm) -->
     <g transform="translate(9.038438 130.119546) rotate(-90) scale(0.1 -0.1)">
      <defs>
       <path id="DejaVuSerif-46" d="M 353 0 
L 353 331 
L 947 331 
L 947 4331 
L 353 4331 
L 353 4666 
L 4172 4666 
L 4172 3628 
L 3788 3628 
L 3788 4281 
L 1581 4281 
L 1581 2719 
L 3175 2719 
L 3175 3303 
L 3559 3303 
L 3559 1753 
L 3175 1753 
L 3175 2338 
L 1581 2338 
L 1581 331 
L 2328 331 
L 2328 0 
L 353 0 
z
" transform="scale(0.015625)"/>
       <path id="DejaVuSerif-57" d="M 4878 0 
L 4366 0 
L 3297 3794 
L 2228 0 
L 1716 0 
L 494 4331 
L 31 4331 
L 31 4666 
L 1734 4666 
L 1734 4331 
L 1153 4331 
L 2125 884 
L 3188 4666 
L 3694 4666 
L 4775 844 
L 5753 4331 
L 5216 4331 
L 5216 4666 
L 6559 4666 
L 6559 4331 
L 6100 4331 
L 4878 0 
z
" transform="scale(0.015625)"/>
       <path id="DejaVuSerif-48" d="M 353 0 
L 353 331 
L 947 331 
L 947 4331 
L 353 4331 
L 353 4666 
L 2175 4666 
L 2175 4331 
L 1581 4331 
L 1581 2719 
L 4000 2719 
L 4000 4331 
L 3406 4331 
L 3406 4666 
L 5228 4666 
L 5228 4331 
L 4634 4331 
L 4634 331 
L 5228 331 
L 5228 0 
L 3406 0 
L 3406 331 
L 4000 331 
L 4000 2338 
L 1581 2338 
L 1581 331 
L 2175 331 
L 2175 0 
L 353 0 
z
" transform="scale(0.015625)"/>
       <path id="DejaVuSerif-4d" d="M 353 0 
L 353 331 
L 947 331 
L 947 4331 
L 319 4331 
L 319 4666 
L 1678 4666 
L 3316 1344 
L 4953 4666 
L 6228 4666 
L 6228 4331 
L 5606 4331 
L 5606 331 
L 6203 331 
L 6203 0 
L 4378 0 
L 4378 331 
L 4972 331 
L 4972 3938 
L 3372 684 
L 2931 684 
L 1331 3938 
L 1331 331 
L 1925 331 
L 1925 0 
L 353 0 
z
" transform="scale(0.015625)"/>
       <path id="DejaVuSerif-63" d="M 3291 997 
Q 3169 466 2822 187 
Q 2475 -91 1925 -91 
Q 1200 -91 759 389 
Q 319 869 319 1663 
Q 319 2459 759 2936 
Q 1200 3413 1925 3413 
Q 2241 3413 2553 3339 
Q 2866 3266 3181 3116 
L 3181 2266 
L 2847 2266 
Q 2781 2703 2561 2903 
Q 2341 3103 1931 3103 
Q 1466 3103 1228 2742 
Q 991 2381 991 1663 
Q 991 944 1227 581 
Q 1463 219 1931 219 
Q 2303 219 2525 412 
Q 2747 606 2828 997 
L 3291 997 
z
" transform="scale(0.015625)"/>
       <path id="DejaVuSerif-6d" d="M 3316 2675 
Q 3481 3041 3739 3227 
Q 3997 3413 4341 3413 
Q 4863 3413 5119 3089 
Q 5375 2766 5375 2113 
L 5375 331 
L 5894 331 
L 5894 0 
L 4300 0 
L 4300 331 
L 4800 331 
L 4800 2047 
Q 4800 2556 4650 2772 
Q 4500 2988 4153 2988 
Q 3769 2988 3567 2697 
Q 3366 2406 3366 1850 
L 3366 331 
L 3866 331 
L 3866 0 
L 2291 0 
L 2291 331 
L 2791 331 
L 2791 2069 
Q 2791 2566 2641 2777 
Q 2491 2988 2144 2988 
Q 1759 2988 1557 2697 
Q 1356 2406 1356 1850 
L 1356 331 
L 1856 331 
L 1856 0 
L 263 0 
L 263 331 
L 781 331 
L 781 2994 
L 231 2994 
L 231 3322 
L 1356 3322 
L 1356 2731 
Q 1516 3063 1762 3238 
Q 2009 3413 2322 3413 
Q 2709 3413 2968 3220 
Q 3228 3028 3316 2675 
z
" transform="scale(0.015625)"/>
      </defs>
      <use xlink:href="#DejaVuSerif-46"/>
      <use xlink:href="#DejaVuSerif-57" transform="translate(69.384766 0)"/>
      <use xlink:href="#DejaVuSerif-48" transform="translate(172.167969 0)"/>
      <use xlink:href="#DejaVuSerif-4d" transform="translate(259.375 0)"/>
      <use xlink:href="#DejaVuSerif-20" transform="translate(361.767578 0)"/>
      <use xlink:href="#DejaVuSerif-28" transform="translate(393.554688 0)"/>
      <use xlink:href="#DejaVuSerif-63" transform="translate(432.568359 0)"/>
      <use xlink:href="#DejaVuSerif-6d" transform="translate(488.574219 0)"/>
      <use xlink:href="#DejaVuSerif-29" transform="translate(583.398438 0)"/>
     </g>
    </g>
   </g>
   <g id="FillBetweenPolyCollection_1">
    <defs>
     <path id="m1e74884605" d="M 48.237994 -40.143846 
L 48.237994 -39.697459 
L 55.807807 -50.116696 
L 63.440072 -57.488388 
L 71.055738 -63.633721 
L 78.59868 -68.742866 
L 86.167745 -73.840064 
L 93.689734 -78.432302 
L 101.24873 -83.137842 
L 108.788135 -86.807487 
L 116.300531 -91.123766 
L 123.798573 -94.55051 
L 131.30233 -98.353684 
L 131.30233 -99.812863 
L 131.30233 -99.812863 
L 123.798573 -96.401776 
L 116.300531 -92.628 
L 108.788135 -88.437838 
L 101.24873 -84.304232 
L 93.689734 -80.08383 
L 86.167745 -75.07003 
L 78.59868 -70.168678 
L 71.055738 -64.880293 
L 63.440072 -58.890634 
L 55.807807 -51.186621 
L 48.237994 -40.143846 
z
"/>
    </defs>
    <g clip-path="url(#pf76f60cb1e)">
     <use xlink:href="#m1e74884605" x="0" y="227.386905" style="fill: #3182bd; fill-opacity: 0.14"/>
    </g>
   </g>
   <g id="FillBetweenPolyCollection_2">
    <defs>
     <path id="mbd968c3707" d="M 49.333579 -44.514919 
L 49.333579 -41.950785 
L 63.537821 -62.571236 
L 78.070932 -76.338069 
L 92.764908 -87.940382 
L 107.616508 -99.160758 
L 122.620758 -110.213276 
L 137.797767 -119.273267 
L 153.170669 -128.173694 
L 168.683464 -138.908625 
L 184.375721 -144.6154 
L 200.15187 -155.015851 
L 216.07094 -161.173091 
L 216.07094 -166.663184 
L 216.07094 -166.663184 
L 200.15187 -159.833712 
L 184.375721 -152.166794 
L 168.683464 -142.268659 
L 153.170669 -133.775311 
L 137.797767 -124.055852 
L 122.620758 -114.616548 
L 107.616508 -104.929355 
L 92.764908 -92.917779 
L 78.070932 -79.581077 
L 63.537821 -65.387906 
L 49.333579 -44.514919 
z
"/>
    </defs>
    <g clip-path="url(#pf76f60cb1e)">
     <use xlink:href="#mbd968c3707" x="0" y="227.386905" style="fill: #e6550d; fill-opacity: 0.14"/>
    </g>
   </g>
   <g id="FillBetweenPolyCollection_3">
    <defs>
     <path id="m31b153b1a6" d="M 50.278913 -49.6915 
L 50.278913 -45.293144 
L 70.285044 -72.136094 
L 90.711584 -90.577826 
L 111.094315 -105.557005 
L 131.961486 -121.871872 
L 153.088991 -136.736469 
L 174.53749 -143.725243 
L 196.128373 -157.873275 
L 218.35282 -168.824124 
L 240.391916 -183.854309 
L 262.266723 -190.443533 
L 284.379117 -205.548525 
L 284.379117 -217.077884 
L 284.379117 -217.077884 
L 262.266723 -206.811697 
L 240.391916 -192.103007 
L 218.35282 -186.041631 
L 196.128373 -169.662929 
L 174.53749 -158.530832 
L 153.088991 -144.511348 
L 131.961486 -135.419184 
L 111.094315 -119.536636 
L 90.711584 -101.525502 
L 70.285044 -78.915561 
L 50.278913 -49.6915 
z
"/>
    </defs>
    <g clip-path="url(#pf76f60cb1e)">
     <use xlink:href="#m31b153b1a6" x="0" y="227.386905" style="fill: #31a354; fill-opacity: 0.14"/>
    </g>
   </g>
   <g id="line2d_117">
    <path d="M 48.237994 187.436269 
L 55.807807 176.803263 
L 63.440072 169.169387 
L 71.055738 163.014671 
L 78.59868 158.035075 
L 86.167745 152.898195 
L 93.689734 148.125522 
L 101.24873 143.688303 
L 108.788135 139.798673 
L 116.300531 135.448342 
L 123.798573 131.809219 
L 131.30233 128.314993 
" clip-path="url(#pf76f60cb1e)" style="fill: none; stroke: #3182bd; stroke-width: 1.8; stroke-linecap: square"/>
   </g>
   <g id="line2d_118">
    <path d="M 49.333579 184.052309 
L 63.537821 163.097112 
L 78.070932 149.437239 
L 92.764908 135.959639 
L 107.616508 124.916396 
L 122.620758 114.393381 
L 137.797767 105.902365 
L 153.170669 96.126908 
L 168.683464 86.911298 
L 184.375721 78.242081 
L 200.15187 70.34745 
L 216.07094 64.159079 
" clip-path="url(#pf76f60cb1e)" style="fill: none; stroke: #e6550d; stroke-width: 1.8; stroke-linecap: square"/>
   </g>
   <g id="line2d_119">
    <path d="M 50.278913 180.103531 
L 70.285044 152.354397 
L 90.711584 131.189444 
L 111.094315 115.319262 
L 131.961486 99.672064 
L 153.088991 87.150256 
L 174.53749 75.270399 
L 196.128373 61.514239 
L 218.35282 48.986096 
L 240.391916 37.966009 
L 262.266723 25.820194 
L 284.379117 16.735742 
" clip-path="url(#pf76f60cb1e)" style="fill: none; stroke: #31a354; stroke-width: 1.8; stroke-linecap: square"/>
   </g>
   <g id="patch_3">
    <path d="M 36.430938 196.558467 
L 36.430938 1.44 
" style="fill: none; stroke: #000000; stroke-width: 0.8; stroke-linejoin: miter; stroke-linecap: square"/>
   </g>
   <g id="patch_4">
    <path d="M 36.430938 196.558467 
L 296.186173 196.558467 
" style="fill: none; stroke: #000000; stroke-width: 0.8; stroke-linejoin: miter; stroke-linecap: square"/>
   </g>
   <g id="PathCollection_1">
    <defs>
     <path id="m749dbdf754" d="M 0 2.54951 
C 0.676138 2.54951 1.324674 2.280877 1.802776 1.802776 
C 2.280877 1.324674 2.54951 0.676138 2.54951 0 
C 2.54951 -0.676138 2.280877 -1.324674 1.802776 -1.802776 
C 1.324674 -2.280877 0.676138 -2.54951 0 -2.54951 
C -0.676138 -2.54951 -1.324674 -2.280877 -1.802776 -1.802776 
C -2.280877 -1.324674 -2.54951 -0.676138 -2.54951 0 
C -2.54951 0.676138 -2.280877 1.324674 -1.802776 1.802776 
C -1.324674 2.280877 -0.676138 2.54951 0 2.54951 
z
" style="stroke: #ffffff; stroke-width: 0.5"/>
    </defs>
    <g clip-path="url(#pf76f60cb1e)">
     <use xlink:href="#m749dbdf754" x="48.237994" y="187.436269" style="fill: #3182bd; stroke: #ffffff; stroke-width: 0.5"/>
     <use xlink:href="#m749dbdf754" x="55.807807" y="176.803263" style="fill: #3182bd; stroke: #ffffff; stroke-width: 0.5"/>
     <use xlink:href="#m749dbdf754" x="63.440072" y="169.169387" style="fill: #3182bd; stroke: #ffffff; stroke-width: 0.5"/>
     <use xlink:href="#m749dbdf754" x="71.055738" y="163.014671" style="fill: #3182bd; stroke: #ffffff; stroke-width: 0.5"/>
     <use xlink:href="#m749dbdf754" x="78.59868" y="158.035075" style="fill: #3182bd; stroke: #ffffff; stroke-width: 0.5"/>
     <use xlink:href="#m749dbdf754" x="86.167745" y="152.898195" style="fill: #3182bd; stroke: #ffffff; stroke-width: 0.5"/>
     <use xlink:href="#m749dbdf754" x="93.689734" y="148.125522" style="fill: #3182bd; stroke: #ffffff; stroke-width: 0.5"/>
     <use xlink:href="#m749dbdf754" x="101.24873" y="143.688303" style="fill: #3182bd; stroke: #ffffff; stroke-width: 0.5"/>
     <use xlink:href="#m749dbdf754" x="108.788135" y="139.798673" style="fill: #3182bd; stroke: #ffffff; stroke-width: 0.5"/>
     <use xlink:href="#m749dbdf754" x="116.300531" y="135.448342" style="fill: #3182bd; stroke: #ffffff; stroke-width: 0.5"/>
     <use xlink:href="#m749dbdf754" x="123.798573" y="131.809219" style="fill: #3182bd; stroke: #ffffff; stroke-width: 0.5"/>
     <use xlink:href="#m749dbdf754" x="131.30233" y="128.314993" style="fill: #3182bd; stroke: #ffffff; stroke-width: 0.5"/>
    </g>
   </g>
   <g id="PathCollection_2">
    <defs>
     <path id="m0b7c1b07d0" d="M 0 2.54951 
C 0.676138 2.54951 1.324674 2.280877 1.802776 1.802776 
C 2.280877 1.324674 2.54951 0.676138 2.54951 0 
C 2.54951 -0.676138 2.280877 -1.324674 1.802776 -1.802776 
C 1.324674 -2.280877 0.676138 -2.54951 0 -2.54951 
C -0.676138 -2.54951 -1.324674 -2.280877 -1.802776 -1.802776 
C -2.280877 -1.324674 -2.54951 -0.676138 -2.54951 0 
C -2.54951 0.676138 -2.280877 1.324674 -1.802776 1.802776 
C -1.324674 2.280877 -0.676138 2.54951 0 2.54951 
z
" style="stroke: #ffffff; stroke-width: 0.5"/>
    </defs>
    <g clip-path="url(#pf76f60cb1e)">
     <use xlink:href="#m0b7c1b07d0" x="49.333579" y="184.052309" style="fill: #e6550d; stroke: #ffffff; stroke-width: 0.5"/>
     <use xlink:href="#m0b7c1b07d0" x="63.537821" y="163.097112" style="fill: #e6550d; stroke: #ffffff; stroke-width: 0.5"/>
     <use xlink:href="#m0b7c1b07d0" x="78.070932" y="149.437239" style="fill: #e6550d; stroke: #ffffff; stroke-width: 0.5"/>
     <use xlink:href="#m0b7c1b07d0" x="92.764908" y="135.959639" style="fill: #e6550d; stroke: #ffffff; stroke-width: 0.5"/>
     <use xlink:href="#m0b7c1b07d0" x="107.616508" y="124.916396" style="fill: #e6550d; stroke: #ffffff; stroke-width: 0.5"/>
     <use xlink:href="#m0b7c1b07d0" x="122.620758" y="114.393381" style="fill: #e6550d; stroke: #ffffff; stroke-width: 0.5"/>
     <use xlink:href="#m0b7c1b07d0" x="137.797767" y="105.902365" style="fill: #e6550d; stroke: #ffffff; stroke-width: 0.5"/>
     <use xlink:href="#m0b7c1b07d0" x="153.170669" y="96.126908" style="fill: #e6550d; stroke: #ffffff; stroke-width: 0.5"/>
     <use xlink:href="#m0b7c1b07d0" x="168.683464" y="86.911298" style="fill: #e6550d; stroke: #ffffff; stroke-width: 0.5"/>
     <use xlink:href="#m0b7c1b07d0" x="184.375721" y="78.242081" style="fill: #e6550d; stroke: #ffffff; stroke-width: 0.5"/>
     <use xlink:href="#m0b7c1b07d0" x="200.15187" y="70.34745" style="fill: #e6550d; stroke: #ffffff; stroke-width: 0.5"/>
     <use xlink:href="#m0b7c1b07d0" x="216.07094" y="64.159079" style="fill: #e6550d; stroke: #ffffff; stroke-width: 0.5"/>
    </g>
   </g>
   <g id="PathCollection_3">
    <defs>
     <path id="m1e9dd7c719" d="M 0 2.54951 
C 0.676138 2.54951 1.324674 2.280877 1.802776 1.802776 
C 2.280877 1.324674 2.54951 0.676138 2.54951 0 
C 2.54951 -0.676138 2.280877 -1.324674 1.802776 -1.802776 
C 1.324674 -2.280877 0.676138 -2.54951 0 -2.54951 
C -0.676138 -2.54951 -1.324674 -2.280877 -1.802776 -1.802776 
C -2.280877 -1.324674 -2.54951 -0.676138 -2.54951 0 
C -2.54951 0.676138 -2.280877 1.324674 -1.802776 1.802776 
C -1.324674 2.280877 -0.676138 2.54951 0 2.54951 
z
" style="stroke: #ffffff; stroke-width: 0.5"/>
    </defs>
    <g clip-path="url(#pf76f60cb1e)">
     <use xlink:href="#m1e9dd7c719" x="50.278913" y="180.103531" style="fill: #31a354; stroke: #ffffff; stroke-width: 0.5"/>
     <use xlink:href="#m1e9dd7c719" x="70.285044" y="152.354397" style="fill: #31a354; stroke: #ffffff; stroke-width: 0.5"/>
     <use xlink:href="#m1e9dd7c719" x="90.711584" y="131.189444" style="fill: #31a354; stroke: #ffffff; stroke-width: 0.5"/>
     <use xlink:href="#m1e9dd7c719" x="111.094315" y="115.319262" style="fill: #31a354; stroke: #ffffff; stroke-width: 0.5"/>
     <use xlink:href="#m1e9dd7c719" x="131.961486" y="99.672064" style="fill: #31a354; stroke: #ffffff; stroke-width: 0.5"/>
     <use xlink:href="#m1e9dd7c719" x="153.088991" y="87.150256" style="fill: #31a354; stroke: #ffffff; stroke-width: 0.5"/>
     <use xlink:href="#m1e9dd7c719" x="174.53749" y="75.270399" style="fill: #31a354; stroke: #ffffff; stroke-width: 0.5"/>
     <use xlink:href="#m1e9dd7c719" x="196.128373" y="61.514239" style="fill: #31a354; stroke: #ffffff; stroke-width: 0.5"/>
     <use xlink:href="#m1e9dd7c719" x="218.35282" y="48.986096" style="fill: #31a354; stroke: #ffffff; stroke-width: 0.5"/>
     <use xlink:href="#m1e9dd7c719" x="240.391916" y="37.966009" style="fill: #31a354; stroke: #ffffff; stroke-width: 0.5"/>
     <use xlink:href="#m1e9dd7c719" x="262.266723" y="25.820194" style="fill: #31a354; stroke: #ffffff; stroke-width: 0.5"/>
     <use xlink:href="#m1e9dd7c719" x="284.379117" y="16.735742" style="fill: #31a354; stroke: #ffffff; stroke-width: 0.5"/>
    </g>
   </g>
   <g id="legend_1">
    <g id="patch_5">
     <path d="M 43.430938 68.1525 
L 102.630938 68.1525 
Q 104.630938 68.1525 104.630938 66.1525 
L 104.630938 8.44 
Q 104.630938 6.44 102.630938 6.44 
L 43.430938 6.44 
Q 41.430938 6.44 41.430938 8.44 
L 41.430938 66.1525 
Q 41.430938 68.1525 43.430938 68.1525 
z
" style="fill: #ffffff; opacity: 0.95; stroke: #f5f5f5; stroke-linejoin: miter"/>
    </g>
    <g id="text_17">
     <!-- Radius -->
     <g transform="translate(55.586406 18.038438) scale(0.1 -0.1)">
      <defs>
       <path id="DejaVuSerif-52" d="M 3066 2316 
Q 3284 2256 3442 2114 
Q 3600 1972 3725 1716 
L 4403 331 
L 4972 331 
L 4972 0 
L 3872 0 
L 3144 1484 
Q 2934 1916 2759 2042 
Q 2584 2169 2278 2169 
L 1581 2169 
L 1581 331 
L 2241 331 
L 2241 0 
L 353 0 
L 353 331 
L 947 331 
L 947 4331 
L 353 4331 
L 353 4666 
L 2719 4666 
Q 3400 4666 3770 4341 
Q 4141 4016 4141 3419 
Q 4141 2938 3870 2661 
Q 3600 2384 3066 2316 
z
M 1581 2503 
L 2503 2503 
Q 2975 2503 3200 2726 
Q 3425 2950 3425 3419 
Q 3425 3888 3200 4109 
Q 2975 4331 2503 4331 
L 1581 4331 
L 1581 2503 
z
" transform="scale(0.015625)"/>
       <path id="DejaVuSerif-64" d="M 3359 331 
L 3909 331 
L 3909 0 
L 2784 0 
L 2784 519 
Q 2616 206 2355 57 
Q 2094 -91 1709 -91 
Q 1097 -91 708 395 
Q 319 881 319 1663 
Q 319 2444 706 2928 
Q 1094 3413 1709 3413 
Q 2094 3413 2355 3264 
Q 2616 3116 2784 2803 
L 2784 4531 
L 2241 4531 
L 2241 4863 
L 3359 4863 
L 3359 331 
z
M 2784 1497 
L 2784 1825 
Q 2784 2422 2554 2737 
Q 2325 3053 1888 3053 
Q 1444 3053 1217 2703 
Q 991 2353 991 1663 
Q 991 975 1217 622 
Q 1444 269 1888 269 
Q 2325 269 2554 583 
Q 2784 897 2784 1497 
z
" transform="scale(0.015625)"/>
       <path id="DejaVuSerif-75" d="M 2266 3322 
L 3341 3322 
L 3341 331 
L 3884 331 
L 3884 0 
L 2766 0 
L 2766 588 
Q 2606 256 2353 82 
Q 2100 -91 1766 -91 
Q 1213 -91 952 223 
Q 691 538 691 1209 
L 691 2988 
L 172 2988 
L 172 3322 
L 1269 3322 
L 1269 1388 
Q 1269 781 1417 556 
Q 1566 331 1947 331 
Q 2347 331 2556 625 
Q 2766 919 2766 1478 
L 2766 2988 
L 2266 2988 
L 2266 3322 
z
" transform="scale(0.015625)"/>
       <path id="DejaVuSerif-73" d="M 359 184 
L 359 959 
L 691 959 
Q 703 588 923 403 
Q 1144 219 1575 219 
Q 1963 219 2166 364 
Q 2369 509 2369 788 
Q 2369 1006 2220 1140 
Q 2072 1275 1594 1428 
L 1178 1569 
Q 750 1706 558 1912 
Q 366 2119 366 2438 
Q 366 2894 700 3153 
Q 1034 3413 1625 3413 
Q 1888 3413 2178 3344 
Q 2469 3275 2778 3144 
L 2778 2419 
L 2447 2419 
Q 2434 2741 2221 2922 
Q 2009 3103 1644 3103 
Q 1281 3103 1095 2975 
Q 909 2847 909 2591 
Q 909 2381 1050 2254 
Q 1191 2128 1613 1997 
L 2069 1856 
Q 2541 1709 2748 1489 
Q 2956 1269 2956 922 
Q 2956 450 2595 179 
Q 2234 -91 1600 -91 
Q 1278 -91 972 -22 
Q 666 47 359 184 
z
" transform="scale(0.015625)"/>
      </defs>
      <use xlink:href="#DejaVuSerif-52"/>
      <use xlink:href="#DejaVuSerif-61" transform="translate(77.542969 0)"/>
      <use xlink:href="#DejaVuSerif-64" transform="translate(137.162109 0)"/>
      <use xlink:href="#DejaVuSerif-69" transform="translate(201.175781 0)"/>
      <use xlink:href="#DejaVuSerif-75" transform="translate(233.158203 0)"/>
      <use xlink:href="#DejaVuSerif-73" transform="translate(297.5625 0)"/>
     </g>
    </g>
    <g id="PathCollection_4">
     <g>
      <use xlink:href="#m749dbdf754" x="55.430938" y="30.091563" style="fill: #3182bd; stroke: #ffffff; stroke-width: 0.5"/>
     </g>
    </g>
    <g id="text_18">
     <!-- $5\,~\mathrm{cm}$ -->
     <g transform="translate(73.430937 32.716563) scale(0.1 -0.1)">
      <defs>
       <path id="Cmr10-35" d="M 556 728 
Q 622 541 758 387 
Q 894 234 1080 148 
Q 1266 63 1466 63 
Q 1928 63 2103 422 
Q 2278 781 2278 1294 
Q 2278 1516 2270 1667 
Q 2263 1819 2228 1959 
Q 2169 2184 2020 2353 
Q 1872 2522 1656 2522 
Q 1441 2522 1286 2456 
Q 1131 2391 1034 2303 
Q 938 2216 863 2119 
Q 788 2022 769 2016 
L 697 2016 
Q 681 2016 657 2036 
Q 634 2056 634 2075 
L 634 4213 
Q 634 4228 654 4245 
Q 675 4263 697 4263 
L 716 4263 
Q 1147 4056 1631 4056 
Q 2106 4056 2547 4263 
L 2566 4263 
Q 2588 4263 2606 4247 
Q 2625 4231 2625 4213 
L 2625 4153 
Q 2625 4122 2613 4122 
Q 2394 3831 2064 3668 
Q 1734 3506 1381 3506 
Q 1125 3506 856 3578 
L 856 2369 
Q 1069 2541 1236 2614 
Q 1403 2688 1663 2688 
Q 2016 2688 2295 2484 
Q 2575 2281 2725 1954 
Q 2875 1628 2875 1288 
Q 2875 903 2686 575 
Q 2497 247 2172 53 
Q 1847 -141 1466 -141 
Q 1150 -141 886 21 
Q 622 184 470 459 
Q 319 734 319 1044 
Q 319 1188 412 1278 
Q 506 1369 647 1369 
Q 788 1369 883 1276 
Q 978 1184 978 1044 
Q 978 906 883 811 
Q 788 716 647 716 
Q 625 716 597 720 
Q 569 725 556 728 
z
" transform="scale(0.015625)"/>
       <path id="Cmr10-63" d="M 1594 -72 
Q 1206 -72 890 129 
Q 575 331 394 667 
Q 213 1003 213 1381 
Q 213 1759 392 2106 
Q 572 2453 889 2661 
Q 1206 2869 1594 2869 
Q 1969 2869 2276 2722 
Q 2584 2575 2584 2241 
Q 2584 2116 2495 2023 
Q 2406 1931 2278 1931 
Q 2150 1931 2061 2023 
Q 1972 2116 1972 2241 
Q 1972 2353 2044 2436 
Q 2116 2519 2222 2541 
Q 2000 2681 1600 2681 
Q 1294 2681 1106 2478 
Q 919 2275 844 1975 
Q 769 1675 769 1381 
Q 769 1072 861 783 
Q 953 494 1158 305 
Q 1363 116 1672 116 
Q 1975 116 2187 302 
Q 2400 488 2478 788 
Q 2478 825 2528 825 
L 2606 825 
Q 2625 825 2640 808 
Q 2656 791 2656 769 
L 2656 750 
Q 2559 372 2271 150 
Q 1984 -72 1594 -72 
z
" transform="scale(0.015625)"/>
       <path id="Cmr10-6d" d="M 191 0 
L 191 225 
Q 409 225 550 259 
Q 691 294 691 428 
L 691 2175 
Q 691 2347 639 2423 
Q 588 2500 491 2517 
Q 394 2534 191 2534 
L 191 2759 
L 1119 2828 
L 1119 2203 
Q 1247 2478 1498 2653 
Q 1750 2828 2047 2828 
Q 2784 2828 2913 2228 
Q 3041 2497 3287 2662 
Q 3534 2828 3828 2828 
Q 4119 2828 4317 2734 
Q 4516 2641 4616 2448 
Q 4716 2256 4716 1966 
L 4716 428 
Q 4716 294 4858 259 
Q 5000 225 5216 225 
L 5216 0 
L 3750 0 
L 3750 225 
Q 3969 225 4109 259 
Q 4250 294 4250 428 
L 4250 1947 
Q 4250 2269 4159 2466 
Q 4069 2663 3788 2663 
Q 3419 2663 3178 2366 
Q 2938 2069 2938 1691 
L 2938 428 
Q 2938 294 3078 259 
Q 3219 225 3438 225 
L 3438 0 
L 1972 0 
L 1972 225 
Q 2191 225 2331 259 
Q 2472 294 2472 428 
L 2472 1947 
Q 2472 2259 2381 2461 
Q 2291 2663 2009 2663 
Q 1638 2663 1398 2366 
Q 1159 2069 1159 1691 
L 1159 428 
Q 1159 294 1300 259 
Q 1441 225 1656 225 
L 1656 0 
L 191 0 
z
" transform="scale(0.015625)"/>
      </defs>
      <use xlink:href="#Cmr10-35" transform="translate(0 0.390625)"/>
      <use xlink:href="#Cmr10-63" transform="translate(93.896484 0.390625)"/>
      <use xlink:href="#Cmr10-6d" transform="translate(138.28125 0.390625)"/>
     </g>
    </g>
    <g id="PathCollection_5">
     <g>
      <use xlink:href="#m0b7c1b07d0" x="55.430938" y="44.769688" style="fill: #e6550d; stroke: #ffffff; stroke-width: 0.5"/>
     </g>
    </g>
    <g id="text_19">
     <!-- $10\,~\mathrm{cm}$ -->
     <g transform="translate(73.430937 47.394688) scale(0.1 -0.1)">
      <defs>
       <path id="Cmr10-31" d="M 594 0 
L 594 225 
Q 1394 225 1394 428 
L 1394 3788 
Q 1063 3628 556 3628 
L 556 3853 
Q 1341 3853 1741 4263 
L 1831 4263 
Q 1853 4263 1873 4245 
Q 1894 4228 1894 4206 
L 1894 428 
Q 1894 225 2694 225 
L 2694 0 
L 594 0 
z
" transform="scale(0.015625)"/>
       <path id="Cmr10-30" d="M 1600 -141 
Q 816 -141 533 504 
Q 250 1150 250 2041 
Q 250 2597 351 3087 
Q 453 3578 754 3920 
Q 1056 4263 1600 4263 
Q 2022 4263 2290 4056 
Q 2559 3850 2700 3523 
Q 2841 3197 2892 2823 
Q 2944 2450 2944 2041 
Q 2944 1491 2842 1011 
Q 2741 531 2444 195 
Q 2147 -141 1600 -141 
z
M 1600 25 
Q 1956 25 2131 390 
Q 2306 756 2347 1200 
Q 2388 1644 2388 2144 
Q 2388 2625 2347 3031 
Q 2306 3438 2132 3767 
Q 1959 4097 1600 4097 
Q 1238 4097 1063 3765 
Q 888 3434 847 3029 
Q 806 2625 806 2144 
Q 806 1788 823 1472 
Q 841 1156 916 820 
Q 991 484 1158 254 
Q 1325 25 1600 25 
z
" transform="scale(0.015625)"/>
      </defs>
      <use xlink:href="#Cmr10-31" transform="translate(0 0.390625)"/>
      <use xlink:href="#Cmr10-30" transform="translate(50 0.390625)"/>
      <use xlink:href="#Cmr10-63" transform="translate(143.896484 0.390625)"/>
      <use xlink:href="#Cmr10-6d" transform="translate(188.28125 0.390625)"/>
     </g>
    </g>
    <g id="PathCollection_6">
     <g>
      <use xlink:href="#m1e9dd7c719" x="55.430938" y="59.447813" style="fill: #31a354; stroke: #ffffff; stroke-width: 0.5"/>
     </g>
    </g>
    <g id="text_20">
     <!-- $15\,~\mathrm{cm}$ -->
     <g transform="translate(73.430937 62.072813) scale(0.1 -0.1)">
      <use xlink:href="#Cmr10-31" transform="translate(0 0.390625)"/>
      <use xlink:href="#Cmr10-35" transform="translate(50 0.390625)"/>
      <use xlink:href="#Cmr10-63" transform="translate(143.896484 0.390625)"/>
      <use xlink:href="#Cmr10-6d" transform="translate(188.28125 0.390625)"/>
     </g>
    </g>
   </g>
  </g>
 </g>
 <defs>
  <clipPath id="pf76f60cb1e">
   <rect x="36.430938" y="1.44" width="259.755235" height="195.118467"/>
  </clipPath>
 </defs>
</svg>
